<svg width="97" height="97" viewBox="0 0 97 97" fill="none" xmlns="http://www.w3.org/2000/svg">
<rect x="8.5" y="8.47705" width="80" height="80" rx="40" fill="#06402B"/>
<rect x="8.5" y="8.47705" width="80" height="80" rx="40" stroke="#F8D955" stroke-width="16.1667"/>
<g clip-path="url(#clip0_340_1171)">
<path d="M56.0313 28.1255C54.711 28.3598 53.2969 28.9458 52.0625 29.7505C51.2735 30.2739 43.6094 37.9145 43 38.7817C42.5703 39.4067 42.0157 40.4458 41.7891 41.0864C41.6094 41.5708 41.5703 41.6098 41.086 41.7895C40.4297 42.0239 39.4766 42.5317 38.8203 42.9848C38.0703 43.5005 30.9219 50.5708 30.1485 51.5551C29.2422 52.7192 28.6485 53.9301 28.2578 55.4145C27.9922 56.438 27.9219 58.3911 28.1094 59.5161C28.8516 63.8442 32.1563 67.1489 36.4844 67.8911C37.6094 68.0786 39.5625 68.0083 40.586 67.7426C42.0157 67.3676 43.2266 66.7895 44.3672 65.9223C45.2266 65.2739 52.5782 57.8442 53.0547 57.1411C53.4844 56.5083 53.9844 55.5395 54.211 54.9145C54.3907 54.4301 54.4297 54.3911 54.9141 54.2114C55.5391 53.9848 56.5078 53.4848 57.1407 53.0551C57.8438 52.5708 65.086 45.4223 65.8516 44.4458C66.7578 43.2817 67.3516 42.0708 67.7422 40.5864C68.0079 39.563 68.0782 37.6098 67.8907 36.4848C67.1563 32.188 63.8672 28.8676 59.5938 28.1255C58.7344 27.9692 56.8672 27.9692 56.0313 28.1255ZM60.0703 29.9067C63.0391 30.7817 65.2266 32.9692 66.0938 35.9301C66.336 36.7739 66.4375 38.5239 66.2891 39.4614C66.086 40.7661 65.4844 42.1723 64.6719 43.2505C63.9453 44.2114 56.7891 51.313 56.086 51.7661C55.6172 52.0708 54.9297 52.4536 54.8594 52.4536C54.8438 52.4536 54.836 51.938 54.836 51.2973C54.836 50.6645 54.7891 49.9223 54.7344 49.6411L54.6407 49.1333L58.5313 45.227C62.1953 41.5473 62.4453 41.2895 62.711 40.7348C63.1719 39.7973 63.336 39.0083 63.2969 37.9301C63.2657 37.2348 63.2032 36.8755 63.0469 36.3911C62.5469 34.8364 61.2188 33.5005 59.625 32.9458C58.7891 32.6489 57.4297 32.602 56.5078 32.8364C55.7188 33.0317 54.9766 33.3833 54.6016 33.7348C54.2344 34.0786 54.2188 34.5161 54.5547 34.8911C54.8672 35.2426 55.1719 35.2192 56.1016 34.7505C56.7969 34.3989 56.875 34.3833 57.6094 34.3442C58.2344 34.313 58.4688 34.3364 58.9141 34.4692C61.2735 35.188 62.3438 37.7505 61.2266 39.9926C61.0782 40.2895 60.1797 41.2348 57.586 43.8364C55.6875 45.7426 54.1172 47.2973 54.086 47.2973C54.0547 47.2973 53.961 47.1176 53.8672 46.8989C53.0625 45.0395 50.961 42.938 49.1016 42.1333C48.8828 42.0395 48.7032 41.9458 48.7032 41.9223C48.7032 41.8989 49.3125 41.2583 50.0625 40.5083C50.9766 39.5786 51.4297 39.063 51.4532 38.9145C51.5625 38.3442 51.2266 37.9223 50.6641 37.9223H50.3047L48.5391 39.6958C46.8203 41.4301 46.7657 41.5005 46.4141 42.2192C45.9453 43.1723 45.7735 44.0083 45.836 44.9926C45.9219 46.3364 46.3438 47.352 47.2578 48.4145C47.961 49.2192 48.2657 49.7583 48.4375 50.4614C48.5782 51.063 48.5547 51.8989 48.375 52.3911L48.2735 52.6723L47.7032 52.4145C46.0625 51.6489 44.6641 50.3286 43.7891 48.6958C42.2344 45.8208 42.5078 42.1801 44.4766 39.5864C45.0782 38.7895 52.2578 31.6489 52.9219 31.1801C53.875 30.5161 55.2891 29.9223 56.3907 29.7192C56.6094 29.6801 57.3672 29.6645 58.0782 29.6723C59.1953 29.6958 59.461 29.727 60.0703 29.9067ZM48.9375 43.9145C50.625 44.8833 52.0703 46.602 52.7032 48.3911C53.6797 51.1098 53.2266 54.1645 51.5235 56.4145C50.9219 57.2114 43.7422 64.352 43.0782 64.8208C42.0547 65.5395 40.6641 66.102 39.461 66.2895C38.5235 66.438 36.7735 66.3364 35.9297 66.0942C32.9688 65.227 30.7735 63.0317 29.9063 60.0708C29.6641 59.227 29.5625 57.477 29.711 56.5395C29.9141 55.2348 30.5157 53.8286 31.3282 52.7505C32.0547 51.7895 39.211 44.688 39.9141 44.2348C40.3828 43.9301 41.0703 43.5473 41.1407 43.5473C41.1563 43.5473 41.1641 44.063 41.1641 44.7036C41.1641 45.3364 41.211 46.0786 41.2657 46.3598L41.3594 46.8676L37.4688 50.7739C33.7578 54.4926 33.5625 54.7114 33.2891 55.2739C32.8203 56.227 32.6641 57.0005 32.7032 58.0708C32.7344 58.7895 32.7891 59.1098 32.961 59.6333C33.5 61.2192 34.7813 62.5005 36.3672 63.0395C36.8907 63.2114 37.211 63.2661 37.9297 63.2973C39 63.3364 39.7657 63.1801 40.7266 62.7114C41.2969 62.438 41.5 62.2505 45.2735 58.477L49.2344 54.5239L49.586 53.7817C50.6172 51.6411 50.3047 49.4067 48.7422 47.5864C48.0391 46.7817 47.7344 46.2426 47.5625 45.5395C47.4297 44.9536 47.4453 44.1333 47.6172 43.6098L47.711 43.3286L48.1485 43.5161C48.3907 43.6255 48.7422 43.8051 48.9375 43.9145ZM42.1328 49.102C42.9375 50.9614 45.0391 53.063 46.8985 53.8676C47.1172 53.9614 47.2969 54.0551 47.2969 54.0864C47.2969 54.1176 45.7422 55.688 43.8438 57.5864C41.2344 60.1801 40.2891 61.0786 39.9922 61.227C38.7891 61.8286 37.5157 61.8286 36.3203 61.227C35.8203 60.9692 35.0313 60.1801 34.7735 59.6801C34.1719 58.4848 34.1719 57.2114 34.7735 56.0083C34.9219 55.7114 35.8203 54.7661 38.4141 52.1567C40.3125 50.2583 41.8828 48.7036 41.9141 48.7036C41.9453 48.7036 42.0391 48.8833 42.1328 49.102Z" fill="white"/>
<path d="M52.6328 35.7114C52.3828 35.7583 52.0625 36.1724 52.0625 36.4458C52.0625 36.9458 52.3984 37.2896 52.8906 37.2974C53.7344 37.2974 53.9766 36.0942 53.2031 35.7739C53.0469 35.7114 52.8984 35.6646 52.8672 35.6646C52.8359 35.6724 52.7266 35.6958 52.6328 35.7114Z" fill="white"/>
<path d="M41.3359 30.1724L41.125 30.3911V33.0942V35.7896L41.3281 36.0005C41.4922 36.1646 41.6094 36.2036 41.9062 36.2036C42.2031 36.2036 42.3203 36.1646 42.4844 36.0005L42.6875 35.7896V33.0786V30.3677L42.4844 30.1567C42.1797 29.8599 41.6328 29.8677 41.3359 30.1724Z" fill="white"/>
<path d="M34.3358 34.0473C33.953 34.2583 33.8201 34.8208 34.0623 35.188C34.2498 35.477 37.1248 38.3676 37.4842 38.6333C37.9061 38.9458 38.2967 38.9458 38.617 38.6176C38.9451 38.2973 38.9451 37.9067 38.6326 37.4848C38.367 37.1255 35.4764 34.2505 35.1873 34.063C34.9608 33.9145 34.5936 33.9067 34.3358 34.0473Z" fill="white"/>
<path d="M30.3984 41.3442C30.1016 41.6567 30.1016 42.188 30.3906 42.4849L30.6016 42.688H33.3125H36.0234L36.2344 42.4849C36.3984 42.3208 36.4375 42.2036 36.4375 41.9067C36.4375 41.6099 36.3984 41.4927 36.2344 41.3286L36.0234 41.1255H33.3203H30.6094L30.3984 41.3442Z" fill="white"/>
<path d="M60 53.438C59.8359 53.6021 59.7969 53.7192 59.7969 54.0161C59.7969 54.313 59.8359 54.4302 60 54.5942L60.2109 54.7974H62.9062H65.6094L65.8281 54.5864C66.1328 54.2896 66.1406 53.7427 65.8438 53.438L65.6328 53.2349H62.9219H60.2109L60 53.438Z" fill="white"/>
<path d="M57.383 57.3832C57.1018 57.6567 57.0549 58.0707 57.2659 58.391C57.4534 58.6801 60.3284 61.5707 60.6877 61.8363C61.1174 62.1567 61.5315 62.1488 61.8362 61.8207C62.1409 61.4926 62.1409 61.102 61.8362 60.6879C61.5705 60.3285 58.6799 57.4535 58.3909 57.266C58.0705 57.0551 57.6565 57.102 57.383 57.3832Z" fill="white"/>
<path d="M53.4375 60.0004L53.2344 60.2113V62.9223V65.6332L53.4375 65.8442C53.7422 66.141 54.2891 66.1332 54.5859 65.8285L54.7969 65.6098V62.9067V60.2113L54.5938 60.0004C54.4297 59.8363 54.3125 59.7973 54.0156 59.7973C53.7188 59.7973 53.6016 59.8363 53.4375 60.0004Z" fill="white"/>
</g>
<defs>
<clipPath id="clip0_340_1171">
<rect width="40" height="40" fill="white" transform="translate(28 28.0005)"/>
</clipPath>
</defs>
</svg>
