<svg width="97" height="97" viewBox="0 0 97 97" fill="none" xmlns="http://www.w3.org/2000/svg">
<rect x="8.5" y="8.47705" width="80" height="80" rx="40" fill="#06402B"/>
<rect x="8.5" y="8.47705" width="80" height="80" rx="40" stroke="#F8D955" stroke-width="16.1667"/>
<path d="M58.1406 31.2036C56.3125 31.5239 54.6953 32.6021 53.7422 34.1333C53.5547 34.4302 53.3437 34.8364 53.2656 35.0161C53.1406 35.3364 53.1172 35.3599 52.8906 35.313C52.6875 35.2661 51.9375 35.1411 51 34.9927C50.7656 34.9536 50.75 34.9302 50.7031 34.4927C50.5937 33.5396 49.9453 32.6567 49.0312 32.2349C48.6406 32.0474 48.4844 32.0239 47.8047 32.0239C47.125 32.0239 46.9687 32.0474 46.5781 32.2349C45.6641 32.6567 44.9922 33.5708 44.8984 34.5083C44.8594 34.8833 44.8281 34.9614 44.6875 34.9849C44.5937 35.0083 44.1406 35.0786 43.6641 35.1489C39.1094 35.8521 34.9609 38.0786 32.7734 41.0005C31.25 43.0317 30.6484 44.7817 30.4844 47.6177L30.3906 49.1411L30.0469 49.2896C29.8516 49.3677 29.5 49.6255 29.2578 49.8677C28.4062 50.7114 28 51.8442 28 53.3521C28 55.3052 28.7734 56.8208 30.1016 57.4771C30.6094 57.7271 30.6328 57.7271 31.9141 57.7505L33.2109 57.7817L33.2578 58.4614C33.3125 59.3286 33.4844 59.9849 33.8672 60.7974C34.2734 61.6724 34.7344 62.3052 35.4844 63.0083C36.1797 63.6646 36.8281 64.0708 37.7031 64.4067C38.8047 64.8364 39.2969 64.8755 43.2109 64.8755H46.7578L46.9453 64.6802C47.2031 64.4302 47.2031 64.0708 46.9453 63.8208L46.7578 63.6255H43.2344C39.4375 63.6255 39.0391 63.5942 38.0547 63.1958C37 62.7661 35.8437 61.7505 35.2422 60.7271C35.0781 60.4536 34.8516 59.9458 34.7344 59.6021L34.5234 58.9771V53.6255V48.2739L34.7422 47.4927C35.5703 44.5083 37.75 42.3755 40.8906 41.4927C41.4609 41.3286 41.6328 41.3208 47.5547 41.2974C50.8906 41.2896 53.6797 41.3052 53.7344 41.3364C53.7969 41.3677 54.0547 41.6489 54.3125 41.9536L54.7812 42.5083L54.8125 43.6099C54.8359 44.6411 54.8437 44.7192 55.0234 44.9067C55.3203 45.2192 55.6484 45.1724 56.9844 44.6411C57.9687 44.2505 58.2344 44.1724 58.6406 44.1724C59.1875 44.1724 59.125 44.1177 59.7969 45.1411C60.3672 45.9927 60.7578 46.9536 60.9687 48.0005C61.125 48.7661 61.1328 48.9927 61.1094 53.8911L61.0859 58.9771L60.875 59.6021C60.3359 61.188 59.0391 62.5864 57.5547 63.1958C56.5703 63.5942 56.1641 63.6255 52.4297 63.6255C49.0547 63.6255 48.9609 63.6333 48.7969 63.7817C48.5391 64.0239 48.5625 64.5005 48.8281 64.7114C49.0312 64.8755 49.1172 64.8755 52.4922 64.8755C56.2969 64.8755 56.8125 64.8286 57.8906 64.4146C59.5 63.7896 60.8984 62.5161 61.6484 61.0083C62.0859 60.1255 62.375 59.0083 62.375 58.188V57.7817L63.6875 57.7505C64.9844 57.7271 65 57.7271 65.5156 57.4692C66.8359 56.8208 67.6094 55.2974 67.6094 53.3521C67.6094 51.4614 66.8359 49.9146 65.6094 49.3208L65.2109 49.1333L65.1641 47.7661C65.1094 46.313 64.9609 45.3989 64.6016 44.2661C64.4844 43.9067 64.4062 43.6021 64.4219 43.5864C64.4375 43.5708 64.6719 43.4302 64.9531 43.2661C65.6328 42.8755 66.7187 41.7817 67.1406 41.063C67.3281 40.7505 67.5781 40.188 67.7109 39.813C67.9219 39.2036 67.9453 39.0083 67.9844 37.9458C68.0078 37.0161 67.9922 36.6333 67.8906 36.1724C67.4297 34.1255 65.9844 32.3833 64.1094 31.6255C63.0703 31.2036 62.8594 31.1802 60.6172 31.1567C59.4609 31.1489 58.3437 31.1646 58.1406 31.2036ZM63.2344 32.6489C64.5312 33.0942 65.6328 34.0552 66.2109 35.2271C66.625 36.0708 66.7578 36.6411 66.7578 37.5786C66.7656 38.6177 66.6562 39.1333 66.2266 40.0317C65.625 41.2896 64.4609 42.2896 63.0781 42.7349C62.7187 42.8521 62.2344 42.8833 60.1484 42.9224L57.6484 42.9692L56.875 43.2974C56.4453 43.4771 56.0859 43.6255 56.0703 43.6255C56.0625 43.6255 56.0469 43.2349 56.0469 42.7583V41.8911L55.8047 41.688C55.3828 41.3208 54.8047 40.5317 54.5234 39.938C53.8359 38.4849 53.8437 36.7427 54.5547 35.3052C55.1016 34.2114 55.8516 33.4614 56.9453 32.9146C57.9219 32.4302 58.2891 32.3755 60.5781 32.3989C62.5469 32.4224 62.5781 32.4224 63.2344 32.6489ZM48.6953 33.4927C49.6406 34.1177 49.7422 35.3442 48.8984 36.1177C48.0703 36.8755 46.8281 36.6489 46.3281 35.6411C46 34.9771 46.0703 34.3677 46.5625 33.7896C47.0625 33.1958 48.0391 33.063 48.6953 33.4927ZM45.2969 36.4224C45.5625 36.938 46.3047 37.5005 47.0078 37.7192C47.125 37.7583 47.1406 37.8833 47.1406 38.8911V40.0161L44.2344 40.0552C41.9219 40.0786 41.2109 40.1177 40.7969 40.2114C36.7812 41.1724 33.8594 44.3208 33.3047 48.2739L33.2109 48.938H32.4297H31.6562L31.7109 47.8599C31.8437 45.3286 32.4375 43.5786 33.7812 41.7896C34.8828 40.3286 36.3672 39.1489 38.3516 38.1567C40.1641 37.2583 41.6953 36.7661 43.8203 36.3911C45.1562 36.1567 45.1641 36.1567 45.2969 36.4224ZM51.9062 36.4067C52.2734 36.4692 52.625 36.5396 52.6875 36.5552C52.7812 36.5864 52.8047 36.7817 52.8047 37.7036C52.8047 38.7427 52.8906 39.2974 53.1172 39.8911C53.1719 40.0239 53.0234 40.0317 50.7812 40.0317H48.3906V38.8989V37.7739L48.6875 37.6958C49.2578 37.5396 50.0547 36.9067 50.3203 36.4146C50.4297 36.2036 50.4531 36.1958 50.8359 36.2427C51.0625 36.2661 51.5391 36.3442 51.9062 36.4067ZM63.375 44.6099C63.6953 45.5552 63.8594 46.5005 63.9141 47.7427L63.9609 48.938H63.1797H62.3984L62.2656 48.1021C62.0547 46.813 61.6094 45.6177 60.9297 44.5005L60.7266 44.1724L61.5703 44.1646C62.0312 44.1646 62.5547 44.1333 62.7266 44.1021C62.8984 44.063 63.0703 44.0396 63.1172 44.0474C63.1562 44.063 63.2734 44.313 63.375 44.6099ZM33.2344 53.3521V56.5161H32.1641C31.2031 56.5161 31.0469 56.4927 30.6953 56.3286C30.0547 56.0317 29.6016 55.4146 29.3672 54.5083C29.2344 54.0005 29.2187 52.813 29.3359 52.3052C29.4609 51.7505 29.7969 51.1177 30.1562 50.7661C30.6094 50.3052 31 50.2036 32.2422 50.1958L33.2344 50.188V53.3521ZM64.7109 50.313C65.7109 50.6099 66.3594 51.8052 66.3594 53.3521C66.3594 54.8208 65.8359 55.9067 64.9141 56.3286C64.5625 56.4927 64.4062 56.5161 63.4531 56.5161H62.375V53.3521V50.188H63.3359C63.9844 50.188 64.4375 50.2271 64.7109 50.313Z" fill="white"/>
<path d="M57.1797 35.5864C56.7812 35.813 56.7031 36.2896 57.0078 36.5786C57.1875 36.7505 57.2266 36.7505 59.9687 36.7505C62.5703 36.7505 62.7578 36.7427 62.9297 36.6021C63.1719 36.4067 63.1797 35.9536 62.9375 35.7114C62.7656 35.5396 62.7344 35.5396 60.0469 35.5239C58.1641 35.5083 57.2891 35.5317 57.1797 35.5864Z" fill="white"/>
<path d="M57.1718 38.3442C56.789 38.5161 56.6953 39.0005 56.9843 39.313L57.1484 39.4849H60.8437C64.3984 39.4849 64.5468 39.4771 64.6718 39.3364C64.8671 39.1177 64.8515 38.6489 64.6484 38.438C64.4843 38.2739 64.4374 38.2739 60.9453 38.2583C58.0937 38.2427 57.3671 38.2583 57.1718 38.3442Z" fill="white"/>
<path d="M39.5781 46.5473C38.1094 46.9067 36.8594 48.2192 36.6016 49.6723C36.4844 50.2973 36.4844 56.563 36.6016 57.188C36.8672 58.6802 38.0312 59.9145 39.5391 60.3052C40.2187 60.4848 55.3984 60.477 56.0859 60.3052C57.5859 59.9145 58.7578 58.6489 59.0156 57.1411C59.0703 56.7973 59.0937 55.477 59.0781 53.1177C59.0469 49.7114 59.0469 49.5864 58.875 49.1411C58.4375 47.9692 57.5625 47.0942 56.3828 46.6489C55.9453 46.4848 55.8203 46.477 52.4453 46.4536C49.0937 46.4302 48.9609 46.438 48.7812 46.5786C48.5156 46.7973 48.5078 47.3286 48.7734 47.5395C48.9453 47.6802 49.1328 47.688 52.1797 47.688C55.2031 47.688 55.4375 47.6958 55.9219 47.8442C56.6016 48.0552 57.2578 48.6489 57.5781 49.3442L57.8047 49.8364L57.8281 53.2192C57.8516 57.0552 57.8359 57.2505 57.3047 58.0005C57.1406 58.2348 56.8437 58.5395 56.6406 58.6802C55.8906 59.1958 56.2656 59.1723 47.7344 59.1723H39.9922L39.5469 58.9848C38.9766 58.7505 38.5391 58.4067 38.25 57.938C37.7812 57.2036 37.7656 57.0473 37.7656 53.477C37.7656 51.6177 37.8047 50.0864 37.8437 49.8911C38.0391 49.0473 38.6172 48.3286 39.4062 47.938L39.8359 47.727L43.1953 47.7036C45.0469 47.6958 46.6328 47.6723 46.7266 47.6489C46.9531 47.5942 47.1719 47.188 47.1094 46.938C47.0781 46.8286 46.9922 46.6802 46.9062 46.5942C46.7578 46.4458 46.6328 46.438 43.375 46.4458C40.9141 46.4458 39.8828 46.477 39.5781 46.5473Z" fill="white"/>
<path d="M42.1171 49.7505C41.4609 49.9849 40.9374 50.5083 40.6484 51.2036C40.4687 51.6411 40.5077 52.5708 40.7187 53.0396C40.9452 53.5317 41.3671 53.9692 41.8671 54.2349C42.1952 54.4067 42.3593 54.438 42.9218 54.4458C43.4921 54.4458 43.6484 54.4146 44.0312 54.2271C45.1249 53.688 45.6249 52.4067 45.2265 51.1958C45.039 50.6333 44.3671 49.9536 43.8281 49.7739C43.3671 49.6177 42.5312 49.6099 42.1171 49.7505ZM43.5468 51.0708C44.4609 51.6802 44.1874 53.0396 43.1249 53.2114C42.3124 53.3442 41.5702 52.5005 41.8202 51.7271C41.9218 51.4302 42.2421 51.0708 42.4921 50.9614C42.7968 50.8364 43.2812 50.8833 43.5468 51.0708Z" fill="white"/>
<path d="M51.9844 49.7741C51.4922 49.9538 50.7969 50.6647 50.6328 51.1569C50.5547 51.3757 50.5 51.7819 50.5 52.1022C50.5 54.2116 53.0391 55.2663 54.5859 53.7897C55.7656 52.6803 55.5078 50.6882 54.0859 49.9147C53.7266 49.7194 53.5625 49.6882 53 49.6647C52.5312 49.6491 52.2344 49.6803 51.9844 49.7741ZM53.5234 51.0553C54.4531 51.6335 54.125 53.0632 53.0234 53.2116C52.3672 53.2975 51.75 52.735 51.75 52.0553C51.75 51.1491 52.7578 50.5788 53.5234 51.0553Z" fill="white"/>
<path d="M45.664 55.7817C45.2812 56.2661 45.6093 56.7896 46.5937 57.2505C47.0546 57.4692 47.1718 57.4927 47.8827 57.4927C48.578 57.4849 48.7109 57.4614 49.1171 57.2661C49.7734 56.9458 50.1874 56.5317 50.1874 56.188C50.1874 55.6177 49.5468 55.3833 49.0624 55.7896C48.2968 56.4302 47.3905 56.4302 46.6249 55.7896C46.289 55.5005 45.8827 55.5005 45.664 55.7817Z" fill="white"/>
</svg>
