<svg width="193" height="294" viewBox="0 0 193 294" fill="none" xmlns="http://www.w3.org/2000/svg">
<path d="M146.621 41.9846C146.567 43.995 181.526 31.9917 181.526 31.9917L156.924 1.69728C156.924 1.69728 147.14 24.3807 146.621 41.9846Z" fill="#01B8C1"/>
<path d="M-88.2822 235.025C-80.9522 264.17 -49.7384 285.353 -19.9781 280.905C9.78222 276.457 33.56 246.585 30.6686 216.667C29.9465 209.23 27.5933 201.6 22.2332 196.386C16.8731 191.172 7.99332 189.117 1.67964 193.15C-5.43623 197.685 -6.63832 208.415 -2.33022 215.66C1.98863 222.904 10.3632 226.915 18.7042 228.21C36.3777 230.954 55.3086 222.348 64.8401 207.221C75.5641 190.189 74.0524 168.599 75.1031 148.517C77.3924 104.44 82.5247 35.8243 146.69 27.7076" stroke="#01B8C1" stroke-width="3" stroke-miterlimit="10" stroke-linecap="round" stroke-linejoin="round" stroke-dasharray="8 8"/>
</svg>
