<svg width="332" height="650" viewBox="0 0 332 650" fill="none" xmlns="http://www.w3.org/2000/svg">
<path fill-rule="evenodd" clip-rule="evenodd" d="M547.392 620.421L542.137 622.439L536.85 624.447L531.527 626.439L526.168 628.411L520.77 630.357L515.331 632.269L509.85 634.14L504.327 635.961L498.76 637.722L493.149 639.411L487.494 641.018L481.796 642.528L476.055 643.93L470.273 645.209L464.453 646.352L458.597 647.344L452.708 648.171L446.791 648.819L440.849 649.274L434.889 649.522L428.916 649.549L422.935 649.343L416.955 648.892L410.981 648.185L405.022 647.211L399.086 645.961L393.18 644.428L387.313 642.605L381.495 640.486L375.733 638.067L370.036 635.347L364.412 632.324L358.871 629L353.42 625.378L348.066 621.461L342.816 617.257L337.678 612.771L332.658 608.013L327.761 602.992L322.992 597.718L318.356 592.204L313.857 586.461L309.496 580.503L305.277 574.346L301.201 568.002L297.269 561.49L293.479 554.823L289.831 548.02L286.324 541.097L282.952 534.07L279.714 526.959L276.605 519.778L273.618 512.547L270.749 505.28L267.989 497.996L265.331 490.709L262.767 483.435L260.288 476.189L257.885 468.985L255.547 461.837L253.263 454.755L251.025 447.752L248.819 440.837L246.636 434.02L244.464 427.308L242.292 420.709L240.109 414.227L237.904 407.866L235.666 401.629L233.384 395.518L231.05 389.534L228.653 383.674L226.185 377.937L223.638 372.319L221.004 366.816L218.278 361.422L215.452 356.131L212.524 350.934L209.488 345.822L206.343 340.788L203.086 335.82L199.716 330.91L196.233 326.045L192.637 321.217L188.927 316.415L185.104 311.629L181.171 306.847L177.13 302.059L172.983 297.255L168.734 292.424L164.388 287.556L159.95 282.64L155.426 277.667L150.823 272.626L146.147 267.509L141.407 262.306L136.612 257.009L131.769 251.61L126.889 246.101L121.981 240.475L117.055 234.726L112.122 228.85L107.193 222.84L102.277 216.693L97.3844 210.406L92.5263 203.976L87.7122 197.402L82.9514 190.682L78.2529 183.816L73.6247 176.804L69.0749 169.648L64.6112 162.348L60.2414 154.906L55.9734 147.326L51.8147 139.609L47.773 131.758L43.8556 123.778L40.0697 115.673L36.4223 107.446L32.9199 99.1027L29.5693 90.6487L26.3763 82.0892L23.3468 73.4303L20.4861 64.6781L17.7993 55.8391L15.2911 46.92L12.9656 37.9279L10.8265 28.8697L8.87719 19.7527L7.12072 10.5844L5.55941 1.37206L4.19527 -7.87674L3.02988 -17.1545L2.06452 -26.4537L1.29984 -35.767L0.736165 -45.087L0.373351 -54.4063L0.210906 -63.7178L0.24815 -73.0144L0.483768 -82.2893L0.916424 -91.5359L1.54409 -100.747L2.36483 -109.918L3.37628 -119.041L4.57601 -128.11L5.9611 -137.121L7.52869 -146.067L9.27578 -154.943L11.199 -163.745L13.2953 -172.467L15.5611 -181.105L17.9929 -189.654L20.5874 -198.11L23.341 -206.469L26.2503 -214.727L29.3118 -222.88L32.5227 -230.924L35.8808 -238.855L39.3845 -246.667L43.0327 -254.355L46.8246 -261.913L50.7601 -269.336L54.8388 -276.615L59.061 -283.745L63.4269 -290.718L67.9367 -297.525L72.5904 -304.159L77.3883 -310.612L82.3301 -316.875L87.4153 -322.939L92.6432 -328.797L98.0128 -334.439L103.522 -339.858L109.17 -345.045L114.953 -349.992L120.869 -354.693L126.913 -359.141L133.082 -363.329L139.37 -367.252L145.772 -370.905L152.283 -374.285L158.895 -377.39L165.602 -380.216L172.395 -382.764L179.266 -385.034L186.207 -387.028L193.209 -388.749L200.263 -390.2L207.359 -391.387L214.488 -392.313L221.642 -392.987L228.812 -393.413L235.988 -393.601L243.161 -393.559L250.323 -393.296L257.466 -392.823L264.581 -392.15L271.661 -391.289L278.698 -390.252L285.685 -389.05L292.615 -387.698L299.482 -386.209L306.281 -384.595L313.005 -382.872L319.652 -381.053L326.216 -379.153L332.693 -377.186L339.082 -375.166L345.379 -373.107L351.583 -371.024L357.692 -368.93L363.707 -366.839L369.626 -364.763L375.451 -362.716L381.183 -360.71L386.823 -358.755L392.373 -356.863L397.838 -355.044L403.218 -353.307L408.52 -351.661L413.745 -350.114L418.899 -348.671L423.987 -347.34L429.014 -346.124L433.984 -345.028L438.905 -344.055L443.78 -343.205L448.617 -342.481L453.421 -341.881L458.197 -341.404L462.953 -341.049L467.693 -340.812L472.424 -340.69L477.15 -340.681L481.878 -340.781L486.613 -340.989L491.359 -341.299L496.123 -341.71L500.909 -342.216L505.721 -342.814L510.565 -343.499L515.446 -344.266L520.366 -345.109L525.331 -346.022L530.345 -346.998L535.41 -348.031L540.531 -349.113L545.71 -350.236L550.949 -351.392L556.253 -352.571L561.621 -353.765L567.056 -354.964L572.56 -356.158L578.132 -357.337L583.774 -358.492L589.485 -359.612L595.266 -360.688L601.115 -361.708L607.031 -362.664L613.014 -363.545L619.061 -364.343L625.171 -365.048L631.341 -365.651L637.569 -366.142L643.85 -366.513L650.183 -366.754L656.562 -366.856L662.983 -366.809L669.441 -366.606L675.932 -366.238L682.45 -365.697L688.989 -364.975L695.543 -364.064L702.106 -362.957L708.671 -361.648L715.232 -360.131L721.78 -358.4L728.31 -356.45L734.813 -354.277L741.283 -351.877L747.711 -349.246L754.09 -346.383L760.412 -343.284L766.669 -339.948L772.855 -336.375L778.961 -332.565L784.98 -328.518L790.904 -324.236L796.727 -319.719L802.441 -314.971L808.04 -309.995L813.516 -304.793L818.864 -299.371L824.078 -293.733L829.151 -287.884L834.079 -281.829L838.856 -275.575L843.477 -269.129L847.939 -262.497L852.237 -255.686L856.367 -248.705L860.326 -241.561L864.112 -234.263L867.722 -226.818L871.154 -219.236L874.406 -211.525L877.478 -203.694L880.369 -195.753L883.081 -187.713L885.615 -179.582L887.975 -171.373L890.165 -163.094L892.188 -154.758L894.051 -146.374L895.76 -137.952L897.321 -129.503L898.741 -121.035L900.029 -112.556L901.193 -104.077L902.24 -95.603L903.18 -87.1423L904.021 -78.7008L904.772 -70.2841L905.443 -61.8971L906.041 -53.5437L906.575 -45.2273L907.055 -36.9506L907.487 -28.7155L907.881 -20.5231L908.242 -12.3741L908.579 -4.26835L908.897 3.79498L909.203 11.817L909.501 19.7994L909.797 27.7445L910.094 35.6549L910.396 43.5334L910.704 51.3833L911.021 59.2081L911.349 67.0112L911.687 74.7965L912.035 82.5675L912.392 90.3279L912.756 98.0813L913.126 105.831L913.497 113.581L913.868 121.333L914.233 129.091L914.589 136.856L914.93 144.631L915.25 152.418L915.546 160.217L915.809 168.029L916.035 175.855L916.216 183.694L916.346 191.547L916.419 199.411L916.428 207.285L916.367 215.167L916.228 223.054L916.005 230.944L915.693 238.833L915.285 246.717L914.775 254.593L914.158 262.455L913.429 270.299L912.583 278.121L911.615 285.914L910.522 293.673L909.299 301.392L907.944 309.066L906.454 316.69L904.827 324.256L903.06 331.759L901.153 339.193L899.105 346.553L896.914 353.832L894.582 361.026L892.108 368.128L889.494 375.133L886.74 382.036L883.848 388.832L880.82 395.518L877.66 402.088L874.369 408.538L870.951 414.867L867.41 421.07L863.751 427.145L859.977 433.09L856.093 438.904L852.103 444.585L848.013 450.132L843.827 455.544L839.55 460.822L835.187 465.964L830.742 470.972L826.221 475.846L821.628 480.586L816.968 485.194L812.245 489.671L807.464 494.018L802.63 498.237L797.745 502.329L792.815 506.298L787.844 510.144L782.835 513.871L777.792 517.481L772.719 520.977L767.62 524.362L762.498 527.64L757.357 530.813L752.2 533.887L747.03 536.865L741.851 539.752L736.664 542.551L731.473 545.267L726.28 547.905L721.088 550.467L715.897 552.96L710.71 555.386L705.529 557.752L700.354 560.06L695.187 562.315L690.029 564.521L684.88 566.684L679.741 568.806L674.613 570.893L669.496 572.948L664.388 574.975L659.292 576.978L654.205 578.961L649.128 580.927L644.059 582.881L638.999 584.825L633.945 586.763L628.897 588.697L623.853 590.63L618.812 592.565L613.772 594.504L608.731 596.448L603.688 598.4L598.64 600.36L593.585 602.33L588.52 604.31L583.445 606.3L578.355 608.299L573.25 610.307L568.125 612.323L562.98 614.345L557.811 616.371L552.616 618.397L547.392 620.421Z" fill="#06402B" fill-opacity="0.08"/>
</svg>
