<svg width="333" height="553" viewBox="0 0 333 553" fill="none" xmlns="http://www.w3.org/2000/svg">
<path fill-rule="evenodd" clip-rule="evenodd" d="M-615.952 861.902L-620.235 858.251L-624.525 854.565L-628.819 850.841L-633.112 847.075L-637.4 843.262L-641.678 839.398L-645.941 835.478L-650.179 831.496L-654.386 827.447L-658.551 823.325L-662.664 819.124L-666.713 814.84L-670.688 810.467L-674.574 805.999L-678.359 801.432L-682.028 796.761L-685.568 791.984L-688.965 787.095L-692.203 782.093L-695.268 776.975L-698.146 771.741L-700.823 766.389L-703.284 760.919L-705.517 755.334L-707.508 749.634L-709.247 743.822L-710.722 737.901L-711.923 731.876L-712.841 725.752L-713.47 719.535L-713.802 713.23L-713.833 706.846L-713.561 700.39L-712.983 693.87L-712.101 687.296L-710.915 680.676L-709.429 674.019L-707.648 667.335L-705.577 660.634L-703.222 653.925L-700.593 647.218L-697.698 640.521L-694.548 633.844L-691.154 627.196L-687.529 620.585L-683.687 614.018L-679.641 607.504L-675.407 601.049L-671.001 594.66L-666.44 588.341L-661.739 582.099L-656.917 575.937L-651.991 569.858L-646.979 563.865L-641.898 557.96L-636.766 552.144L-631.602 546.416L-626.421 540.777L-621.241 535.223L-616.078 529.754L-610.948 524.365L-605.865 519.052L-600.845 513.811L-595.899 508.636L-591.041 503.521L-586.281 498.46L-581.629 493.445L-577.095 488.469L-572.686 483.523L-568.408 478.599L-564.266 473.689L-560.263 468.784L-556.402 463.875L-552.684 458.953L-549.108 454.01L-545.673 449.038L-542.374 444.027L-539.208 438.972L-536.168 433.863L-533.248 428.694L-530.44 423.46L-527.736 418.154L-525.127 412.77L-522.604 407.304L-520.158 401.75L-517.78 396.105L-515.458 390.365L-513.183 384.527L-510.944 378.589L-508.73 372.548L-506.53 366.405L-504.332 360.157L-502.125 353.807L-499.896 347.355L-497.635 340.803L-495.329 334.153L-492.967 327.409L-490.537 320.575L-488.029 313.656L-485.432 306.656L-482.736 299.583L-479.93 292.442L-477.006 285.24L-473.955 277.984L-470.769 270.683L-467.442 263.343L-463.966 255.973L-460.338 248.58L-456.551 241.171L-452.602 233.756L-448.489 226.34L-444.209 218.931L-439.76 211.536L-435.14 204.165L-430.348 196.825L-425.382 189.523L-420.244 182.269L-414.932 175.071L-409.447 167.936L-403.792 160.873L-397.966 153.89L-391.972 146.996L-385.813 140.197L-379.491 133.503L-373.01 126.919L-366.373 120.455L-359.585 114.115L-352.649 107.908L-345.572 101.84L-338.357 95.9164L-331.01 90.1434L-323.537 84.5261L-315.943 79.0695L-308.235 73.7785L-300.419 68.657L-292.501 63.7089L-284.488 58.9376L-276.385 54.346L-268.201 49.9369L-259.94 45.7125L-251.611 41.6747L-243.219 37.825L-234.771 34.1646L-226.273 30.6944L-217.732 27.415L-209.155 24.3267L-200.547 21.4295L-191.915 18.7232L-183.264 16.2075L-174.6 13.8817L-165.929 11.7452L-157.257 9.79691L-148.589 8.03594L-139.93 6.46113L-131.286 5.07132L-122.661 3.86537L-114.06 2.84278L-105.489 2.00369L-96.9522 1.34915L-88.4553 0.880707L-80.0036 0.600546L-71.6029 0.511424L-63.2592 0.616423L-54.9785 0.919071L-46.7674 1.42305L-38.6326 2.13235L-30.5812 3.05087L-22.6202 4.18268L-14.7573 5.53167L-7.00021 7.10139L0.643363 8.89535L8.16546 10.9166L15.558 13.1678L22.813 15.6509L29.9224 18.3673L36.8784 21.3179L43.6733 24.5025L50.2997 27.9207L56.7505 31.5704L63.019 35.4494L69.0991 39.5539L74.9852 43.8796L80.6722 48.4208L86.156 53.171L91.4334 58.1228L96.5016 63.2675L101.359 68.5961L106.004 74.0989L110.436 79.7659L114.657 85.5864L118.666 91.5495L122.466 97.6438L126.06 103.858L129.45 110.18L132.642 116.597L135.639 123.098L138.447 129.67L141.073 136.301L143.524 142.978L145.807 149.69L147.93 156.424L149.902 163.168L151.733 169.911L153.433 176.642L155.01 183.35L156.477 190.024L157.844 196.655L159.122 203.232L160.322 209.747L161.456 216.193L162.535 222.56L163.572 228.843L164.577 235.034L165.562 241.129L166.537 247.123L167.515 253.012L168.505 258.792L169.518 264.461L170.563 270.018L171.65 275.461L172.787 280.791L173.982 286.008L175.244 291.114L176.577 296.111L177.989 301.001L179.485 305.788L181.068 310.477L182.743 315.072L184.511 319.579L186.375 324.003L188.334 328.35L190.391 332.628L192.544 336.842L194.794 340.998L197.142 345.103L199.586 349.164L202.127 353.185L204.763 357.174L207.495 361.136L210.319 365.078L213.235 369.006L216.241 372.927L219.332 376.847L222.506 380.772L225.76 384.71L229.087 388.666L232.484 392.648L235.945 396.661L239.464 400.712L243.033 404.807L246.647 408.953L250.297 413.155L253.976 417.419L257.674 421.75L261.384 426.155L265.097 430.637L268.804 435.201L272.494 439.852L276.161 444.593L279.793 449.427L283.384 454.358L286.922 459.389L290.4 464.521L293.807 469.757L297.134 475.098L300.371 480.546L303.508 486.101L306.535 491.764L309.443 497.535L312.221 503.413L314.859 509.397L317.349 515.487L319.68 521.68L321.844 527.974L323.831 534.367L325.632 540.855L327.241 547.434L328.648 554.102L329.846 560.853L330.828 567.683L331.588 574.587L332.12 581.559L332.418 588.593L332.478 595.684L332.295 602.825L331.865 610.01L331.186 617.231L330.254 624.481L329.068 631.754L327.628 639.043L325.931 646.338L323.978 653.635L321.77 660.923L319.308 668.197L316.593 675.449L313.629 682.67L310.418 689.855L306.963 696.995L303.268 704.083L299.339 711.112L295.179 718.076L290.795 724.967L286.192 731.78L281.377 738.508L276.356 745.146L271.136 751.687L265.725 758.127L260.13 764.461L254.362 770.685L248.431 776.796L242.346 782.791L236.12 788.67L229.764 794.43L223.288 800.073L216.707 805.597L210.03 811.006L203.269 816.3L196.437 821.482L189.543 826.555L182.6 831.524L175.616 836.392L168.602 841.164L161.567 845.846L154.52 850.442L147.467 854.958L140.417 859.401L133.375 863.777L126.348 868.092L119.339 872.351L112.353 876.563L105.393 880.731L98.4616 884.863L91.5605 888.965L84.6907 893.041L77.8524 897.096L71.0452 901.137L64.2681 905.166L57.5195 909.187L50.7973 913.205L44.0989 917.221L37.4211 921.237L30.7607 925.255L24.1139 929.277L17.4768 933.302L10.8453 937.329L4.21509 941.358L-2.41803 945.388L-9.05833 949.415L-15.7102 953.437L-22.3776 957.452L-29.0646 961.454L-35.7749 965.439L-42.512 969.403L-49.2793 973.341L-56.0795 977.245L-62.9152 981.112L-69.7885 984.933L-76.7013 988.703L-83.6549 992.415L-90.6501 996.061L-97.6875 999.635L-104.767 1003.13L-111.888 1006.54L-119.05 1009.85L-126.252 1013.07L-133.491 1016.18L-140.767 1019.17L-148.075 1022.04L-155.413 1024.79L-162.779 1027.4L-170.168 1029.88L-177.577 1032.21L-185.001 1034.4L-192.436 1036.43L-199.878 1038.31L-207.322 1040.02L-214.764 1041.58L-222.197 1042.97L-229.618 1044.19L-237.021 1045.24L-244.401 1046.12L-251.753 1046.82L-259.073 1047.36L-266.354 1047.72L-273.594 1047.91L-280.786 1047.93L-287.927 1047.78L-295.012 1047.47L-302.038 1047L-309.001 1046.36L-315.898 1045.57L-322.725 1044.63L-329.479 1043.54L-336.159 1042.3L-342.761 1040.93L-349.284 1039.42L-355.726 1037.77L-362.084 1036L-368.359 1034.11L-374.548 1032.1L-380.651 1029.98L-386.667 1027.75L-392.596 1025.41L-398.438 1022.98L-404.192 1020.45L-409.859 1017.83L-415.44 1015.12L-420.935 1012.33L-426.345 1009.47L-431.671 1006.54L-436.916 1003.54L-442.08 1000.48L-447.166 997.359L-452.177 994.188L-457.114 990.969L-461.98 987.707L-466.778 984.405L-471.51 981.068L-476.18 977.699L-480.79 974.302L-485.343 970.88L-489.843 967.437L-494.293 963.975L-498.696 960.498L-503.055 957.008L-507.375 953.508L-511.658 950L-515.909 946.486L-520.129 942.968L-524.324 939.447L-528.497 935.926L-532.65 932.406L-536.788 928.887L-540.913 925.37L-545.03 921.856L-549.141 918.346L-553.249 914.838L-557.358 911.334L-561.469 907.833L-565.585 904.334L-569.71 900.836L-573.844 897.338L-577.989 893.838L-582.148 890.335L-586.321 886.827L-590.509 883.312L-594.713 879.786L-598.932 876.247L-603.167 872.693L-607.416 869.12L-611.678 865.524L-615.952 861.902Z" fill="#06402B" fill-opacity="0.08"/>
</svg>
