<svg width="160" height="169" viewBox="0 0 160 169" fill="none" xmlns="http://www.w3.org/2000/svg">
<path d="M76.9067 150.71C74.6229 156.229 70.8588 160.458 66.3335 164.242C62.4637 167.477 60.2644 168.513 54.9778 168.746C44.0028 169.232 32.8798 166.061 23.9137 159.696C10.7818 150.372 4.71276 135.825 2.11175 120.453C-2.30785 94.3193 -0.193195 66.4093 12.3043 43.0241C24.8019 19.6389 48.6762 1.58192 75.1515 0.101839C85.8727 -0.490191 96.6573 1.53963 106.786 5.1341C132.056 14.0991 154.577 34.7356 159.23 61.1233C160.52 68.4814 160.329 76.4315 156.755 82.9861C143.835 106.794 101.162 95.3342 86.3591 118.043C80.1632 127.6 81.284 140.181 76.9067 150.71Z" fill="#06402B" fill-opacity="0.22"/>
<path d="M47.5766 95.8839C50.5159 88.1875 46.6673 79.5608 38.9912 76.6218C31.2939 73.6828 22.6662 77.531 19.7269 85.2062C16.7875 92.9026 20.6362 101.529 28.3123 104.468C35.9884 107.429 44.6161 103.58 47.5766 95.8839Z" fill="#002C44"/>
<path d="M70.8377 50.0439C73.7771 42.3475 69.9284 33.7207 62.2522 30.7817C54.5549 27.8427 45.9272 31.6909 42.9879 39.3662C40.0485 47.0626 43.8972 55.6893 51.5733 58.6283C59.2706 61.5884 67.8772 57.7403 70.8377 50.0439Z" fill="#FF7765"/>
<path d="M116.493 46.9991C119.432 39.3027 115.583 30.676 107.907 27.737C100.21 24.798 91.5824 28.6462 88.643 36.3214C85.7037 44.0178 89.5523 52.6446 97.2284 55.5836C104.926 58.5437 113.553 54.6955 116.493 46.9991Z" fill="#01B8C1"/>
</svg>
