<svg width="40" height="42" viewBox="0 0 40 42" fill="none" xmlns="http://www.w3.org/2000/svg">
<path d="M7.60245 41.5149L0 15.8575L19.9027 0L39.8054 15.8575L32.2034 41.5149H7.60245Z" fill="url(#paint0_linear_340_1536)"/>
<path d="M10.0853 37.3248C10.0853 37.3248 9.96387 37.0143 9.76604 36.4654C9.57415 35.9147 9.2825 35.1344 8.9641 34.1865C8.64019 33.2405 8.27637 32.1321 7.89939 30.9398C7.51817 29.7485 7.13397 28.4705 6.7485 27.1931C6.37534 25.9109 6.00005 24.6293 5.67062 23.4207C5.33609 22.2131 5.03681 21.0813 4.79143 20.1079C4.54096 19.1358 4.35884 18.3164 4.21917 17.7475C4.08544 17.1763 4.01709 16.8467 4.01709 16.8467C4.01709 16.8467 4.1385 17.1572 4.33676 17.7056C4.52864 18.2568 4.82115 19.0366 5.13912 19.9849C5.46303 20.9305 5.82728 22.039 6.20383 23.2317C6.58506 24.4226 6.9684 25.701 7.35387 26.9784C7.72661 28.261 8.10148 29.5422 8.43133 30.7512C8.76501 31.9589 9.06472 33.0897 9.3101 34.0636C9.56014 35.0357 9.74312 35.8555 9.88321 36.4244C10.0169 36.9952 10.0853 37.3248 10.0853 37.3248Z" fill="white"/>
<path d="M10.0849 37.3255L4.01709 16.8473L19.9025 4.19043L35.7879 16.8473L29.7201 37.3255H10.0849Z" fill="url(#paint1_linear_340_1536)"/>
<path d="M11.3761 29.8209L9.46191 16.7459L16.2348 20.2608L19.9028 13.293L23.5715 20.2608L30.3436 16.7459L28.4387 29.8391L11.3761 29.8209Z" fill="#893B0C"/>
<path d="M30.0859 17.1225L23.49 20.5452L19.9023 13.7305L16.3151 20.5452L9.71875 17.1225L11.5463 29.6024L28.2676 29.6206L30.0859 17.1225Z" fill="url(#paint2_linear_340_1536)"/>
<path d="M12.745 28.06L11.5312 19.7709L16.8845 22.5488L19.9012 16.8184L22.9188 22.5488L28.275 19.7685L27.0668 28.0763L12.745 28.06Z" fill="url(#paint3_linear_340_1536)"/>
<path d="M12.7449 28.0596L11.5469 29.6019L28.2682 29.6201L27.0668 28.0759L12.7449 28.0596Z" fill="url(#paint4_linear_340_1536)"/>
<path d="M16.3154 20.5452L16.8843 22.5489L19.901 16.8185L19.9027 13.7305L16.3154 20.5452Z" fill="#E8F983"/>
<path d="M19.9026 13.7305L19.9009 16.8185L22.9184 22.5489L23.4903 20.5452L19.9026 13.7305Z" fill="url(#paint5_linear_340_1536)"/>
<path d="M30.0861 17.1221L28.2746 19.7683L27.0664 28.076L28.2678 29.6202L30.0861 17.1221Z" fill="url(#paint6_linear_340_1536)"/>
<g opacity="0.9">
<path d="M28.2747 19.7686C28.2747 19.7686 28.2293 20.2928 28.1393 21.0758C28.0904 21.4669 28.042 21.924 27.9745 22.4115C27.9079 22.8989 27.8366 23.4189 27.7657 23.9389C27.6859 24.4566 27.6056 24.9757 27.5309 25.4618C27.4566 25.9478 27.373 26.3994 27.3089 26.7876C27.1726 27.5614 27.0669 28.0763 27.0669 28.0763C27.0669 28.0763 27.1119 27.5511 27.2023 26.7686C27.2511 26.378 27.2991 25.9208 27.3675 25.4334C27.4337 24.9459 27.5054 24.4259 27.5768 23.9054C27.6566 23.3873 27.7364 22.8691 27.8111 22.3826C27.8858 21.8966 27.969 21.445 28.0335 21.0567C28.1694 20.283 28.2747 19.7686 28.2747 19.7686Z" fill="white"/>
</g>
<path d="M9.71875 17.1221L11.5306 19.7706L16.8839 22.5485L16.3151 20.5448L9.71875 17.1221Z" fill="url(#paint7_linear_340_1536)"/>
<path d="M28.8744 24.2233C28.4694 26.6232 27.6004 28.4625 26.936 28.3289C26.2695 28.193 26.0594 26.1348 26.4678 23.7321C26.8745 21.3285 27.7418 19.4942 28.407 19.6301C29.0727 19.7642 29.2815 21.8219 28.8744 24.2233Z" fill="url(#paint8_radial_340_1536)"/>
<path d="M0 15.8575L4.01731 16.8468L19.9027 4.18994V0L0 15.8575Z" fill="#E8F983"/>
<path d="M7.60254 41.5151L10.0852 37.3252H29.7204L32.2035 41.5151H7.60254Z" fill="url(#paint9_linear_340_1536)"/>
<path d="M35.788 16.8467C35.788 16.8467 35.4314 18.1349 34.8965 20.0664C34.621 21.0296 34.2996 22.153 33.9553 23.3569C33.6042 24.5585 33.2294 25.8402 32.8545 27.1218C32.4712 28.3998 32.087 29.6782 31.7274 30.8765C31.3606 32.072 31.0184 33.1884 30.7251 34.1451C30.1222 36.0534 29.7202 37.3248 29.7202 37.3248C29.7202 37.3248 30.0768 36.0366 30.6117 34.1051C30.8868 33.1418 31.2082 32.0185 31.5529 30.8146C31.904 29.613 32.2788 28.3313 32.6537 27.0501C33.0375 25.7717 33.4212 24.4933 33.7808 23.295C34.1476 22.0995 34.4902 20.9831 34.7836 20.0268C35.3864 18.1181 35.788 16.8467 35.788 16.8467Z" fill="white"/>
<path d="M39.8053 15.8574L35.788 16.8467L29.7202 37.3248L32.2033 41.5148L39.8053 15.8574Z" fill="url(#paint10_linear_340_1536)"/>
<path d="M34.0485 27.5394C33.0008 31.1232 31.5693 33.8303 30.8548 33.5803C30.1382 33.3285 30.4099 30.2144 31.4623 26.6264C32.513 23.038 33.9411 20.3382 34.6564 20.5906C35.3718 20.841 35.0988 23.9537 34.0485 27.5394Z" fill="url(#paint11_radial_340_1536)"/>
<path opacity="0.4" d="M32.4923 40.5419L32.2036 41.5149H23.5055L0.0634766 15.8073L5.78228 11.2509L32.4923 40.5419ZM30.573 8.5014L19.9029 0L13.656 4.97765L35.8257 29.29L39.1867 17.9479L30.573 8.5014Z" fill="url(#paint12_linear_340_1536)"/>
<defs>
<linearGradient id="paint0_linear_340_1536" x1="6.5089" y1="14.7375" x2="76.9917" y2="62.2813" gradientUnits="userSpaceOnUse">
<stop stop-color="#AF6517"/>
<stop offset="0.257" stop-color="#E0A03B"/>
<stop offset="0.48" stop-color="#E9FF88"/>
<stop offset="0.6391" stop-color="#E0A03B"/>
<stop offset="1" stop-color="#88390B"/>
</linearGradient>
<linearGradient id="paint1_linear_340_1536" x1="-8.54439" y1="-9.12829" x2="61.1426" y2="57.5323" gradientUnits="userSpaceOnUse">
<stop stop-color="#AF6517"/>
<stop offset="0.257" stop-color="#E0A03B"/>
<stop offset="0.48" stop-color="#E9FF88"/>
<stop offset="0.6391" stop-color="#E0A03B"/>
<stop offset="1" stop-color="#88390B"/>
</linearGradient>
<linearGradient id="paint2_linear_340_1536" x1="8.58513" y1="20.197" x2="36.7636" y2="25.0204" gradientUnits="userSpaceOnUse">
<stop stop-color="#AF6517"/>
<stop offset="0.257" stop-color="#E0A03B"/>
<stop offset="0.48" stop-color="#E9FF88"/>
<stop offset="0.6391" stop-color="#E0A03B"/>
<stop offset="1" stop-color="#88390B"/>
</linearGradient>
<linearGradient id="paint3_linear_340_1536" x1="6.50395" y1="12.357" x2="36.3793" y2="32.8558" gradientUnits="userSpaceOnUse">
<stop stop-color="#AF6517"/>
<stop offset="0.257" stop-color="#E0A03B"/>
<stop offset="0.48" stop-color="#E9FF88"/>
<stop offset="0.6391" stop-color="#E0A03B"/>
<stop offset="1" stop-color="#88390B"/>
</linearGradient>
<linearGradient id="paint4_linear_340_1536" x1="-9.50737" y1="-9.72924" x2="20.1064" y2="23.2048" gradientUnits="userSpaceOnUse">
<stop stop-color="#AF6517"/>
<stop offset="0.257" stop-color="#E0A03B"/>
<stop offset="0.48" stop-color="#E9FF88"/>
<stop offset="0.6391" stop-color="#E0A03B"/>
<stop offset="1" stop-color="#88390B"/>
</linearGradient>
<linearGradient id="paint5_linear_340_1536" x1="20.8593" y1="16.5022" x2="27.5516" y2="31.0034" gradientUnits="userSpaceOnUse">
<stop stop-color="#E0A03B"/>
<stop offset="1" stop-color="#88390B"/>
</linearGradient>
<linearGradient id="paint6_linear_340_1536" x1="21.4449" y1="19.7682" x2="35.3828" y2="25.1685" gradientUnits="userSpaceOnUse">
<stop stop-color="#AF6517"/>
<stop offset="0.257" stop-color="#E0A03B"/>
<stop offset="0.48" stop-color="#E9FF88"/>
<stop offset="0.6391" stop-color="#E0A03B"/>
<stop offset="1" stop-color="#88390B"/>
</linearGradient>
<linearGradient id="paint7_linear_340_1536" x1="6.35114" y1="15.6275" x2="16.9841" y2="20.9175" gradientUnits="userSpaceOnUse">
<stop stop-color="#AF6517"/>
<stop offset="0.257" stop-color="#E0A03B"/>
<stop offset="0.48" stop-color="#E9FF88"/>
<stop offset="0.6391" stop-color="#E0A03B"/>
<stop offset="1" stop-color="#88390B"/>
</linearGradient>
<radialGradient id="paint8_radial_340_1536" cx="0" cy="0" r="1" gradientUnits="userSpaceOnUse" gradientTransform="translate(27.6694 24.0415) rotate(11.5244) scale(1.07731 4.05598)">
<stop stop-color="white"/>
<stop offset="1" stop-color="white" stop-opacity="0"/>
</radialGradient>
<linearGradient id="paint9_linear_340_1536" x1="-13.107" y1="28.679" x2="40.4591" y2="43.739" gradientUnits="userSpaceOnUse">
<stop stop-color="#AF6517"/>
<stop offset="0.257" stop-color="#E0A03B"/>
<stop offset="0.48" stop-color="#E9FF88"/>
<stop offset="0.6391" stop-color="#E0A03B"/>
<stop offset="1" stop-color="#88390B"/>
</linearGradient>
<linearGradient id="paint10_linear_340_1536" x1="31.9151" y1="-6.10739" x2="36.2467" y2="35.2507" gradientUnits="userSpaceOnUse">
<stop stop-color="#E0A03B"/>
<stop offset="1" stop-color="#88390B"/>
</linearGradient>
<radialGradient id="paint11_radial_340_1536" cx="0" cy="0" r="1" gradientUnits="userSpaceOnUse" gradientTransform="translate(32.7407 27.1882) rotate(19.4121) scale(1.20305 6.21703)">
<stop stop-color="white"/>
<stop offset="1" stop-color="white" stop-opacity="0"/>
</radialGradient>
<linearGradient id="paint12_linear_340_1536" x1="-4.87268" y1="-22.9445" x2="49.3804" y2="50.3887" gradientUnits="userSpaceOnUse">
<stop stop-color="white"/>
<stop offset="1" stop-color="#FAF7F5" stop-opacity="0"/>
</linearGradient>
</defs>
</svg>
