<svg width="535" height="1025" viewBox="0 0 535 1025" fill="none" xmlns="http://www.w3.org/2000/svg">
<path fill-rule="evenodd" clip-rule="evenodd" d="M208.628 116.318L213.428 111.995L218.298 107.75L223.237 103.586L228.243 99.5034L233.315 95.5041L238.45 91.5892L243.649 87.7601L248.907 84.0178L254.225 80.3635L259.599 76.7982L265.028 73.3225L270.51 69.9376L276.043 66.6441L281.625 63.4422L287.254 60.3327L292.927 57.3156L298.642 54.3911L304.398 51.5593L310.191 48.8196L316.019 46.1722L321.881 43.6164L327.773 41.1515L333.694 38.7767L339.641 36.491L345.612 34.2936L351.605 32.183L357.617 30.1581L363.647 28.2172L369.692 26.359L375.749 24.5818L381.819 22.8837L387.897 21.2632L393.983 19.7181L400.075 18.2468L406.171 16.8471L412.269 15.5171L418.37 14.2551L424.47 13.0591L430.568 11.9273L436.665 10.8578L442.759 9.84911L448.848 8.89932L454.933 8.00727L461.012 7.17148L467.085 6.39084L473.151 5.66437L479.21 4.99135L485.263 4.37107L491.307 3.8033L497.344 3.28779L503.373 2.82421L509.393 2.41234L515.405 2.05211L521.408 1.7434L527.402 1.48629L533.386 1.28058L539.362 1.1265L545.327 1.02414L551.283 0.973636L557.229 0.975433L563.164 1.02974L569.088 1.13688L575.002 1.29736L580.904 1.51163L586.795 1.78025L592.673 2.10399L598.539 2.48314L604.392 2.91866L610.232 3.41123L616.058 3.96155L621.87 4.57052L627.666 5.23902L633.446 5.96761L639.211 6.75751L644.957 7.60937L650.686 8.52404L656.396 9.50242L662.087 10.5455L667.756 11.6541L673.404 12.829L679.03 14.0709L684.632 15.3805L690.209 16.7586L695.76 18.2058L701.284 19.7227L706.78 21.3098L712.247 22.9676L717.683 24.6962L723.088 26.4961L728.459 28.3674L733.797 30.3101L739.099 32.3242L744.365 34.4096L749.593 36.566L754.783 38.793L759.933 41.0901L765.042 43.4566L770.109 45.8919L775.134 48.3954L780.115 50.9658L785.052 53.6023L789.944 56.3038L794.79 59.0692L799.59 61.897L804.342 64.7861L809.048 67.7347L813.705 70.7417L818.315 73.805L822.877 76.9232L827.39 80.0946L831.855 83.3168L836.272 86.5883L840.642 89.907L844.964 93.2708L849.24 96.6778L853.469 100.125L857.653 103.612L861.793 107.135L865.889 110.692L869.943 114.282L873.956 117.901L877.928 121.549L881.863 125.221L885.76 128.918L889.622 132.635L893.45 136.372L897.247 140.127L901.013 143.897L904.752 147.682L908.464 151.478L912.151 155.285L915.816 159.102L919.461 162.927L923.087 166.759L926.697 170.598L930.291 174.441L933.872 178.29L937.442 182.143L941.001 186.001L944.552 189.863L948.095 193.729L951.632 197.601L955.163 201.478L958.689 205.361L962.21 209.252L965.728 213.151L969.241 217.059L972.752 220.977L976.259 224.907L979.763 228.849L983.265 232.804L986.764 236.774L990.261 240.759L993.755 244.762L997.246 248.782L1000.73 252.821L1004.22 256.881L1007.7 260.962L1011.18 265.067L1014.65 269.195L1018.12 273.349L1021.58 277.53L1025.04 281.739L1028.48 285.977L1031.92 290.246L1035.35 294.547L1038.77 298.88L1042.17 303.249L1045.56 307.653L1048.94 312.094L1052.3 316.573L1055.64 321.092L1058.96 325.65L1062.26 330.251L1065.53 334.894L1068.77 339.581L1071.99 344.312L1075.18 349.089L1078.33 353.912L1081.44 358.781L1084.52 363.699L1087.55 368.665L1090.54 373.679L1093.48 378.743L1096.38 383.856L1099.22 389.019L1102 394.232L1104.72 399.494L1107.39 404.807L1109.99 410.169L1112.52 415.581L1114.97 421.041L1117.36 426.55L1119.67 432.107L1121.9 437.711L1124.04 443.361L1126.1 449.056L1128.08 454.796L1129.96 460.578L1131.76 466.401L1133.45 472.265L1135.06 478.166L1136.56 484.106L1137.97 490.08L1139.28 496.088L1140.48 502.128L1141.58 508.198L1142.58 514.296L1143.47 520.421L1144.26 526.57L1144.94 532.742L1145.51 538.934L1145.97 545.144L1146.32 551.371L1146.57 557.612L1146.7 563.865L1146.73 570.129L1146.64 576.401L1146.45 582.678L1146.14 588.96L1145.72 595.244L1145.2 601.527L1144.56 607.808L1143.82 614.085L1142.96 620.355L1142 626.616L1140.92 632.867L1139.74 639.104L1138.44 645.327L1137.04 651.532L1135.52 657.718L1133.9 663.881L1132.17 670.021L1130.33 676.134L1128.37 682.219L1126.31 688.272L1124.14 694.292L1121.85 700.275L1119.46 706.219L1116.95 712.121L1114.33 717.979L1111.6 723.789L1108.75 729.548L1105.79 735.255L1102.72 740.906L1099.54 746.498L1096.24 752.029L1092.83 757.495L1089.31 762.894L1085.69 768.224L1081.95 773.481L1078.11 778.663L1074.16 783.768L1070.11 788.793L1065.96 793.735L1061.7 798.593L1057.35 803.365L1052.9 808.047L1048.36 812.639L1043.73 817.138L1039.01 821.543L1034.2 825.852L1029.31 830.063L1024.34 834.176L1019.3 838.189L1014.18 842.101L1008.99 845.912L1003.73 849.62L998.408 853.224L993.027 856.726L987.59 860.124L982.1 863.418L976.561 866.608L970.976 869.696L965.349 872.68L959.684 875.562L953.984 878.342L948.254 881.022L942.496 883.602L936.715 886.084L930.913 888.469L925.096 890.758L919.265 892.954L913.424 895.057L907.578 897.07L901.728 898.996L895.878 900.835L890.032 902.591L884.192 904.265L878.361 905.86L872.542 907.38L866.737 908.826L860.95 910.201L855.182 911.508L849.435 912.751L843.713 913.931L838.017 915.052L832.348 916.118L826.709 917.13L821.101 918.093L815.525 919.009L809.984 919.882L804.477 920.714L799.006 921.508L793.571 922.268L788.174 922.997L782.814 923.698L777.493 924.373L772.21 925.025L766.965 925.657L761.759 926.273L756.592 926.874L751.462 927.464L746.37 928.045L741.314 928.62L736.296 929.191L731.313 929.76L726.365 930.33L721.45 930.904L716.569 931.483L711.72 932.069L706.901 932.666L702.112 933.275L697.35 933.897L692.616 934.536L687.906 935.193L683.22 935.87L678.557 936.568L673.913 937.291L669.288 938.04L664.681 938.816L660.088 939.622L655.508 940.46L650.94 941.331L646.38 942.238L641.828 943.182L637.28 944.165L632.736 945.189L628.191 946.254L623.644 947.361L619.093 948.512L614.534 949.707L609.966 950.946L605.386 952.229L600.791 953.557L596.178 954.929L591.546 956.345L586.891 957.803L582.212 959.304L577.505 960.846L572.768 962.427L568 964.045L563.196 965.701L558.356 967.39L553.477 969.111L548.558 970.862L543.595 972.641L538.588 974.443L533.534 976.267L528.432 978.11L523.281 979.968L518.079 981.838L512.825 983.716L507.517 985.6L502.156 987.484L496.739 989.365L491.268 991.24L485.74 993.104L480.156 994.953L474.516 996.783L468.82 998.59L463.067 1000.37L457.26 1002.12L451.397 1003.83L445.479 1005.5L439.509 1007.12L433.486 1008.7L427.412 1010.22L421.288 1011.69L415.116 1013.09L408.897 1014.42L402.634 1015.69L396.328 1016.88L389.981 1017.99L383.597 1019.02L377.176 1019.96L370.721 1020.82L364.236 1021.58L357.722 1022.24L351.183 1022.81L344.621 1023.27L338.039 1023.63L331.44 1023.87L324.828 1024.01L318.204 1024.04L311.572 1023.95L304.936 1023.74L298.297 1023.42L291.661 1022.97L285.029 1022.4L278.405 1021.71L271.792 1020.9L265.194 1019.96L258.613 1018.89L252.052 1017.69L245.516 1016.37L239.006 1014.92L232.527 1013.34L226.081 1011.63L219.672 1009.79L213.302 1007.83L206.975 1005.73L200.694 1003.51L194.461 1001.15L188.28 998.671L182.154 996.063L176.086 993.327L170.079 990.465L164.136 987.478L158.26 984.366L152.454 981.13L146.72 977.771L141.063 974.29L135.484 970.689L129.987 966.967L124.575 963.126L119.251 959.168L114.018 955.094L108.879 950.905L103.837 946.601L98.8949 942.186L94.0563 937.659L89.3235 933.024L84.6994 928.281L80.1866 923.433L75.7875 918.482L71.5044 913.43L67.3395 908.28L63.2949 903.033L59.3724 897.694L55.5737 892.263L51.9004 886.745L48.3538 881.142L44.9352 875.457L41.6454 869.693L38.4855 863.854L35.456 857.943L32.5573 851.962L29.7897 845.916L27.1534 839.807L24.6482 833.64L22.2737 827.417L20.0295 821.142L17.9149 814.819L15.929 808.452L14.0707 802.042L12.3388 795.595L10.7319 789.113L9.24836 782.601L7.88645 776.06L6.6442 769.495L5.51962 762.909L4.51037 756.305L3.61408 749.686L2.82831 743.055L2.15033 736.415L1.57742 729.768L1.10673 723.119L0.735198 716.468L0.459862 709.82L0.277526 703.175L0.184955 696.537L0.178929 689.907L0.256031 683.287L0.412966 676.68L0.646257 670.087L0.952608 663.509L1.32845 656.948L1.77056 650.405L2.27562 643.882L2.84051 637.379L3.46219 630.898L4.13778 624.438L4.86443 618L5.63953 611.585L6.46069 605.193L7.32528 598.825L8.23107 592.479L9.17603 586.157L10.1581 579.859L11.1754 573.583L12.2263 567.33L13.3091 561.099L14.4225 554.891L15.5649 548.704L16.7353 542.538L17.9327 536.393L19.1561 530.268L20.4047 524.162L21.6779 518.075L22.9751 512.006L24.2958 505.954L25.6399 499.919L27.0069 493.9L28.397 487.897L29.81 481.908L31.2461 475.934L32.7054 469.973L34.1882 464.025L35.6948 458.089L37.2256 452.165L38.781 446.253L40.3615 440.351L41.9675 434.459L43.5997 428.577L45.2587 422.704L46.9449 416.84L48.6589 410.985L50.4013 405.138L52.1725 399.299L53.9731 393.467L55.8035 387.642L57.6641 381.824L59.5552 376.012L61.477 370.206L63.4299 364.406L65.4143 358.611L67.4305 352.821L69.4795 347.036L71.5618 341.256L73.6785 335.481L75.8307 329.71L78.0195 323.944L80.2462 318.184L82.5122 312.429L84.8189 306.68L87.1678 300.937L89.5608 295.202L91.9995 289.475L94.4856 283.756L97.0211 278.048L99.6075 272.351L102.247 266.666L104.941 260.996L107.693 255.34L110.503 249.702L113.373 244.083L116.306 238.484L119.303 232.908L122.366 227.356L125.496 221.832L128.696 216.336L131.966 210.872L135.308 205.441L138.724 200.047L142.214 194.692L145.78 189.378L149.423 184.107L153.143 178.883L156.941 173.708L160.818 168.584L164.773 163.515L168.808 158.502L172.922 153.548L177.114 148.656L181.386 143.827L185.735 139.065L190.162 134.371L194.666 129.747L199.246 125.196L203.9 120.719L208.628 116.318Z" fill="#F3F6FA"/>
</svg>
