<svg width="97" height="97" viewBox="0 0 97 97" fill="none" xmlns="http://www.w3.org/2000/svg">
<rect x="8.5" y="8.36768" width="80" height="80" rx="40" fill="#06402B"/>
<rect x="8.5" y="8.36768" width="80" height="80" rx="40" stroke="#F8D955" stroke-width="16.1667"/>
<g clip-path="url(#clip0_2025_441)">
<path d="M65.5781 28.1333C64.7344 28.5474 64.3125 29.2583 64.3125 30.2349C64.3125 31.2114 64.7344 31.9224 65.5781 32.3364C65.9844 32.5474 66.1406 32.5786 66.6562 32.5786C67.1719 32.5786 67.3281 32.5474 67.7344 32.3364C68.5781 31.9224 69 31.2192 69 30.2271C69 28.8442 68.0391 27.8911 66.6484 27.8911C66.1406 27.8911 65.9844 27.9224 65.5781 28.1333ZM67.2344 29.2896C67.5703 29.5161 67.75 29.8364 67.75 30.2349C67.75 30.6333 67.5703 30.9536 67.2344 31.1802C66.7578 31.4927 66.0469 31.3208 65.7109 30.813C65.3984 30.3364 65.5703 29.6255 66.0781 29.2896C66.2188 29.2036 66.4453 29.1411 66.6562 29.1411C66.8672 29.1411 67.0938 29.2036 67.2344 29.2896Z" fill="white"/>
<path d="M52.4531 29.6956C51.5469 30.0471 50.9531 30.969 50.9531 32.0315C50.9531 33.0471 51.4531 33.8753 52.3203 34.2971C52.8828 34.5784 53.7969 34.6096 54.4141 34.3753C55.3594 34.0159 55.9531 33.1175 55.9531 32.0315C55.9531 30.5471 54.9219 29.5237 53.4297 29.5393C53.0625 29.5393 52.7266 29.594 52.4531 29.6956ZM54.1641 30.9768C54.5625 31.2737 54.6641 31.4925 54.6641 32.0315C54.6641 32.5706 54.5625 32.7893 54.1641 33.0862C53.8906 33.2971 53.2344 33.3362 52.875 33.1643C52.4219 32.9456 52.2422 32.6331 52.2422 32.0315C52.2422 31.4456 52.4141 31.1253 52.8438 30.9065C53.1797 30.7346 53.8906 30.7737 54.1641 30.9768Z" fill="white"/>
<path d="M45.7969 30.6724C45.1406 30.9536 44.7812 31.5317 44.7812 32.3052C44.7812 33.3677 45.4766 34.063 46.5391 34.063C47.5938 34.063 48.2969 33.3599 48.2969 32.3052C48.2969 31.5317 47.9219 30.9458 47.2656 30.6724C46.8984 30.5161 46.1562 30.5161 45.7969 30.6724ZM46.9062 31.9302C47.0781 32.0864 47.0859 32.4771 46.9141 32.6724C46.7578 32.8442 46.3672 32.8521 46.1719 32.6802C46 32.5239 45.9922 32.1333 46.1641 31.938C46.3203 31.7661 46.7109 31.7583 46.9062 31.9302Z" fill="white"/>
<path d="M59.6485 32.4066C57.7969 33.0628 57.3204 35.5628 58.7969 36.8597C59.3047 37.305 59.6797 37.4456 60.4063 37.4847C60.9454 37.5081 61.1485 37.4847 61.5079 37.3519C62.1251 37.1175 62.6094 36.6644 62.9219 36.0316C63.1485 35.5706 63.1797 35.4378 63.1797 34.8831C63.1797 34.3284 63.1485 34.1956 62.9219 33.7347C62.6407 33.1644 62.2422 32.7659 61.6641 32.4847C61.1719 32.2503 60.2032 32.2112 59.6485 32.4066ZM61.1876 33.6722C61.8204 33.9925 62.1094 34.7737 61.8282 35.4066C61.4219 36.3206 60.1954 36.5472 59.5547 35.8206C59.4219 35.6722 59.2813 35.4144 59.2266 35.2425C58.8985 34.1331 60.1407 33.1331 61.1876 33.6722Z" fill="white"/>
<path d="M48.9375 34.6567C48.2031 35.0239 47.8281 35.6489 47.8281 36.5239C47.8281 37.7739 48.6562 38.5942 49.8984 38.5942C51.1484 38.5942 51.9609 37.7739 51.9688 36.5161C51.9688 35.2817 51.1484 34.4614 49.8906 34.4536C49.4531 34.4536 49.2578 34.4927 48.9375 34.6567ZM50.4922 35.9302C50.6797 36.1177 50.7188 36.2271 50.7188 36.5239C50.7188 36.8208 50.6797 36.9302 50.4922 37.1177C50.3047 37.3052 50.1953 37.3442 49.8984 37.3442C49.6016 37.3442 49.4922 37.3052 49.3047 37.1177C49.1172 36.9302 49.0781 36.8208 49.0781 36.5239C49.0781 36.2271 49.1172 36.1177 49.3047 35.9302C49.4922 35.7427 49.6016 35.7036 49.8984 35.7036C50.1953 35.7036 50.3047 35.7427 50.4922 35.9302Z" fill="white"/>
<path d="M41.7344 35.3208C40.3126 35.5083 38.6641 35.9692 37.4688 36.5161C36.6876 36.8833 35.7423 37.4692 35.6407 37.6567C35.4219 38.0708 35.7032 38.5942 36.1485 38.5942C36.2735 38.5942 36.6641 38.4146 37.086 38.1646C38.9688 37.0396 41.2266 36.4771 43.8204 36.4771C44.9688 36.4771 45.1016 36.4614 45.2813 36.3208C45.5469 36.1099 45.5626 35.6255 45.3126 35.3911C45.1563 35.2427 45.0548 35.2349 43.6954 35.2427C42.8985 35.2505 42.0157 35.2817 41.7344 35.3208Z" fill="white"/>
<path d="M54.3438 35.6177C53.8828 35.8286 53.4922 36.2036 53.2656 36.6567C53.1016 36.9849 53.0625 37.1724 53.0625 37.6489C53.0703 38.5864 53.4609 39.2505 54.25 39.6411C54.8281 39.9302 55.6719 39.9302 56.25 39.6411C57.0391 39.2505 57.4297 38.5864 57.4375 37.6489C57.4375 37.1724 57.3984 36.9849 57.2344 36.6567C57.0078 36.2036 56.6172 35.8286 56.1562 35.6177C55.7188 35.4224 54.7812 35.4224 54.3438 35.6177ZM55.9141 36.9927C56.1562 37.2349 56.1875 37.3208 56.1875 37.6567C56.1875 37.9927 56.1562 38.0786 55.9141 38.3208C55.6719 38.563 55.5859 38.5942 55.25 38.5942C54.9141 38.5942 54.8281 38.563 54.5859 38.3208C54.3438 38.0786 54.3125 37.9927 54.3125 37.6567C54.3125 37.3208 54.3438 37.2349 54.5859 36.9927C54.8281 36.7505 54.9141 36.7192 55.25 36.7192C55.5859 36.7192 55.6719 36.7505 55.9141 36.9927Z" fill="white"/>
<path d="M64.8203 36.4302C64.6485 36.4927 64.3985 36.5942 64.2656 36.6646C63.8985 36.8521 63.3281 37.5317 63.1875 37.9458C63.0235 38.4146 63.0313 39.2427 63.1875 39.7192C63.3594 40.2192 63.9688 40.8677 64.4844 41.1021C65.0703 41.3599 65.9766 41.3599 66.5625 41.1021C67.0781 40.8677 67.6875 40.2192 67.8594 39.7192C68.0235 39.2427 68.0235 38.4146 67.8594 37.938C67.6875 37.4302 67.0781 36.7817 66.5625 36.563C66.0625 36.3442 65.2578 36.2896 64.8203 36.4302ZM66.1797 37.7896C66.9297 38.3521 66.9219 39.313 66.1641 39.8755C66 39.9927 65.8281 40.0396 65.5235 40.0396C65.0547 40.0396 64.7813 39.8833 64.4922 39.4536C64.086 38.8599 64.3906 37.9536 65.0938 37.6646C65.375 37.5474 65.9375 37.6099 66.1797 37.7896Z" fill="white"/>
<path d="M43.586 38.9925C43.1563 39.0941 42.5157 39.4144 42.1016 39.7269L41.7422 40.0003L41.1641 39.9066C40.4532 39.7972 39.8829 39.8909 39.1797 40.2347C38.6172 40.5159 37.9219 41.2191 37.711 41.7347C37.586 42.0316 37.5079 42.1019 37.0157 42.3362C35.3672 43.1253 34.4766 45.1487 35.0547 46.805C35.1407 47.0472 35.1329 47.1487 34.961 47.6644C34.7969 48.1566 34.7657 48.3441 34.7969 48.9456C34.8594 50.2269 35.3751 51.0003 36.0157 50.7737C36.336 50.6644 36.4844 50.305 36.3516 49.9691C36.0782 49.3206 36.0391 49.1487 36.0313 48.7581C36.0313 48.4378 36.0938 48.1956 36.2813 47.7894C36.5157 47.2894 36.5235 47.2347 36.4297 46.93C36.1329 45.93 36.1094 45.805 36.1485 45.4534C36.2813 44.4847 36.9766 43.6409 37.8907 43.3597C38.1719 43.2737 38.4454 43.1644 38.5001 43.1175C38.5547 43.0706 38.6563 42.8441 38.7266 42.6019C38.9063 42.0003 39.5001 41.3909 40.086 41.2191C40.6329 41.0628 40.8126 41.0628 41.3438 41.2503C42.0079 41.4847 42.1329 41.4612 42.586 41.0159C43.2579 40.3597 43.8516 40.1253 44.8438 40.1487C45.3516 40.1566 45.4376 40.1331 45.6094 39.9612C45.8594 39.7112 45.8594 39.3519 45.6016 39.1019C45.4297 38.9222 45.3594 38.9066 44.6485 38.9144C44.2266 38.9222 43.7501 38.9534 43.586 38.9925Z" fill="white"/>
<path d="M33.6562 39.4925C33.2812 39.8988 32.6328 41.0316 32.3516 41.7503C32.0156 42.6175 31.8359 43.3832 31.7031 44.5082C31.6094 45.266 31.5312 45.6019 31.3125 46.1019C31.1562 46.4535 31.0156 46.8519 30.9844 46.9925C30.9219 47.3519 31.0703 47.8285 31.4766 48.5316L31.8359 49.141L31.6172 49.4691C31.2188 50.0785 30.8203 50.5003 30.1406 51.0472C29.7734 51.3441 29.375 51.7269 29.2578 51.8988C29.0625 52.18 29.0391 52.2816 29.0391 52.891C29.0391 53.4847 29.0625 53.6019 29.2344 53.8597C29.4609 54.1957 29.9922 54.5707 30.4219 54.7035C30.5859 54.7503 30.7188 54.8363 30.7188 54.891C30.7188 54.9457 30.5469 55.1175 30.3359 55.266C29.6016 55.805 29.5938 56.6253 30.3281 57.2347C30.5391 57.4222 30.5469 57.43 30.4297 57.6644C30.2734 57.9847 30.3281 58.6878 30.5312 58.9613C30.6172 59.0785 30.8125 59.2113 30.9609 59.2582C31.25 59.3597 31.25 59.3597 31.0547 60.055C30.7266 61.2191 31.3906 62.6097 32.5391 63.1488C33.6094 63.6566 34.4766 63.6957 36.9922 63.3519C38.1094 63.1957 38.3672 63.1878 38.7422 63.266C39.9375 63.516 40.6719 64.2582 41.5781 66.141C42.125 67.2738 42.3594 67.5628 42.8828 67.7894C43.4375 68.016 43.8516 67.9378 48.9141 66.6332C51.5938 65.9457 53.8828 65.3363 54 65.2738C54.3125 65.1175 54.75 64.5941 54.8672 64.2503C54.9219 64.0785 54.9688 63.7894 54.9688 63.5941C54.9688 63.18 54.5156 61.7738 54.3359 61.6253C54.125 61.4535 53.6172 61.5003 53.4453 61.7113C53.2422 61.9535 53.2578 62.1175 53.5312 62.9222C53.7734 63.641 53.7656 63.8285 53.4844 64.0707C53.3281 64.2035 43.9922 66.641 43.6406 66.641C43.5312 66.641 43.375 66.6097 43.2969 66.5628C43.2188 66.5238 42.9141 65.9847 42.6094 65.3753C41.625 63.3597 40.6484 62.4066 39.2188 62.0707C38.5391 61.9144 38.1797 61.9222 36.4219 62.1566C34.1172 62.4613 33.2812 62.3441 32.6406 61.6332C32.1719 61.1175 32.1094 60.5628 32.4531 59.8988C32.7734 59.2894 32.5078 58.5394 31.8828 58.2816C31.7578 58.2269 31.6562 58.1644 31.6562 58.1488C31.6562 58.1253 31.7422 58.0082 31.8516 57.8753C32.1719 57.5003 32.1172 57.2503 31.6016 56.7035C31.2109 56.2972 31.1719 56.2269 31.2891 56.1644C31.5078 56.0394 31.9609 55.3832 32.0469 55.0707C32.2266 54.3988 31.8906 53.8988 31.0391 53.5863C30.4766 53.3832 30.2266 53.1488 30.2656 52.8441C30.2812 52.68 30.4766 52.4613 31.0547 51.9613C31.9766 51.1644 32.5156 50.5238 32.8438 49.8597C33.1719 49.1957 33.125 48.8128 32.625 47.9535C32.4219 47.6097 32.2578 47.2816 32.2578 47.2347C32.2578 47.1878 32.3828 46.8285 32.5391 46.4457C32.7578 45.891 32.8516 45.516 32.9453 44.7269C33.1562 43.0003 33.4922 42.0082 34.3125 40.7503C34.8359 39.9457 34.8828 39.7035 34.5859 39.4144C34.3047 39.1253 33.9609 39.1566 33.6562 39.4925Z" fill="white"/>
<path d="M59.0312 39.4458C58.5703 39.6567 58.1797 40.0317 57.9531 40.4849C57.7891 40.813 57.75 41.0005 57.75 41.4771C57.7578 42.4146 58.1484 43.0786 58.9375 43.4692C59.5156 43.7583 60.3594 43.7583 60.9375 43.4692C61.7266 43.0786 62.1172 42.4146 62.125 41.4771C62.125 41.0005 62.0859 40.813 61.9219 40.4849C61.6953 40.0317 61.3047 39.6567 60.8438 39.4458C60.4062 39.2505 59.4688 39.2505 59.0312 39.4458ZM60.6016 40.8208C60.8438 41.063 60.875 41.1489 60.875 41.4849C60.875 41.8208 60.8438 41.9067 60.6016 42.1489C60.3594 42.3911 60.2734 42.4224 59.9375 42.4224C59.6016 42.4224 59.5156 42.3911 59.2734 42.1489C59.0312 41.9067 59 41.8208 59 41.4849C59 41.1489 59.0312 41.063 59.2734 40.8208C59.5156 40.5786 59.6016 40.5474 59.9375 40.5474C60.2734 40.5474 60.3594 40.5786 60.6016 40.8208Z" fill="white"/>
<path d="M47.2266 39.9302C46.5391 40.2739 46.2344 40.8442 46.2813 41.6802C46.3125 42.3442 46.5391 42.7583 47.0625 43.1021C47.3516 43.2974 47.4532 43.3208 48.0625 43.3208C48.6719 43.3208 48.7735 43.2974 49.0625 43.1021C49.2422 42.9849 49.4844 42.7427 49.6016 42.563C49.7969 42.2739 49.8204 42.1724 49.8204 41.563C49.8204 40.9536 49.7969 40.8521 49.6016 40.563C49.25 40.0239 48.8438 39.813 48.1485 39.7817C47.6641 39.7661 47.4922 39.7896 47.2266 39.9302ZM48.4532 41.1724C48.5391 41.2583 48.6094 41.4302 48.6094 41.563C48.6094 41.6958 48.5391 41.8677 48.4532 41.9536C48.3672 42.0396 48.1954 42.1099 48.0625 42.1099C47.9297 42.1099 47.7579 42.0396 47.6719 41.9536C47.586 41.8677 47.5157 41.6958 47.5157 41.563C47.5157 41.4302 47.586 41.2583 47.6719 41.1724C47.7579 41.0864 47.9297 41.0161 48.0625 41.0161C48.1954 41.0161 48.3672 41.0864 48.4532 41.1724Z" fill="white"/>
<path d="M53.2344 41.1724C52.3438 41.6255 51.8906 42.3677 51.8906 43.3989C51.8906 44.4302 52.3438 45.1724 53.2344 45.6255C53.6484 45.8286 53.7969 45.8599 54.3516 45.8599C54.9062 45.8599 55.0547 45.8286 55.4688 45.6255C56.3594 45.1724 56.8125 44.4302 56.8125 43.3911C56.8125 42.8442 56.7812 42.6958 56.5781 42.2817C56.125 41.3911 55.3828 40.938 54.3438 40.938C53.7969 40.938 53.6484 40.9692 53.2344 41.1724ZM55.0625 42.3833C55.5703 42.7114 55.7344 43.5552 55.3828 44.063C54.6953 45.0864 53.1406 44.6333 53.1406 43.4067C53.1406 42.3911 54.2031 41.8208 55.0625 42.3833Z" fill="white"/>
<path d="M61.1094 45.1255C60.4531 45.4067 60.0938 45.9849 60.0938 46.7583C60.0938 47.8208 60.7891 48.5161 61.8516 48.5161C62.9062 48.5161 63.6094 47.813 63.6094 46.7583C63.6094 45.9849 63.2344 45.3989 62.5781 45.1255C62.2109 44.9692 61.4688 44.9692 61.1094 45.1255ZM62.2188 46.3833C62.3906 46.5396 62.3984 46.9302 62.2266 47.1255C62.0703 47.2974 61.6797 47.3052 61.4844 47.1333C61.3125 46.9771 61.3047 46.5864 61.4766 46.3911C61.6328 46.2192 62.0234 46.2114 62.2188 46.3833Z" fill="white"/>
<path d="M41.3829 45.6177C40.9532 45.813 40.7892 45.9692 40.1329 46.7349C40.0704 46.813 39.9454 46.8755 39.8595 46.8755C39.6095 46.8755 39.1173 47.1567 38.8126 47.4692C38.4454 47.8521 38.2657 48.3989 38.3126 49.0161C38.3595 49.5786 38.5001 49.8911 38.8829 50.2739L39.1564 50.5396L38.9298 50.6567C38.8048 50.7271 38.5548 50.7974 38.3673 50.8208C37.7189 50.9146 37.6642 50.938 37.5548 51.2114C37.4064 51.563 37.5236 51.9067 37.8361 52.0317C38.1251 52.1567 38.7814 52.0864 39.3048 51.8833L39.6876 51.7271L39.9298 52.0786C40.3751 52.6958 41.1251 53.1021 41.9611 53.1802C42.297 53.2114 42.5548 53.2896 42.7501 53.4146C43.0314 53.6021 43.0548 53.6489 43.6486 55.5317C44.3204 57.6724 44.4689 58.0005 44.8517 58.2583C45.1017 58.4224 45.1954 58.438 46.2892 58.438H47.4532L47.7579 58.1333C48.0314 57.8677 48.0626 57.7896 48.0626 57.4536C48.0626 57.2427 47.9454 56.6646 47.797 56.1724C47.6486 55.6802 47.547 55.2583 47.5626 55.2427C47.5782 55.2271 47.7189 55.2896 47.8829 55.3833C48.8673 55.938 49.0001 55.9771 49.8204 55.9771C50.5001 55.9771 50.6564 55.9536 51.047 55.7661C51.2892 55.6567 51.6486 55.4146 51.8439 55.2349C52.2267 54.8833 52.6486 54.1333 52.7189 53.6724C52.7579 53.4458 52.8282 53.3599 53.1564 53.1646C53.9923 52.6646 54.7501 51.5786 54.9454 50.6021C55.0626 50.0396 54.9376 49.7583 54.5314 49.6567C54.1329 49.5552 53.8751 49.7349 53.7657 50.1724C53.4689 51.3833 52.6798 52.1958 51.547 52.4771C50.9532 52.6177 50.3907 52.563 49.7501 52.2817L49.3986 52.1255L49.5314 51.7271C49.6486 51.3442 49.6486 51.3208 49.5001 51.1177C49.1564 50.6646 48.6251 50.7583 48.3439 51.3208C47.8282 52.3208 46.797 52.7036 45.8361 52.2271C45.3282 51.9771 45.172 51.9849 44.8282 52.2583C44.2814 52.6958 43.8126 52.6646 43.2423 52.1724C42.8907 51.8677 42.8751 51.8599 42.4298 51.9146C42.0392 51.9614 41.9142 51.938 41.547 51.7739C40.9923 51.5161 40.6407 51.0161 40.6407 50.4771C40.6407 49.9849 40.5001 49.7583 40.1017 49.563C39.5236 49.2896 39.3829 48.7817 39.7657 48.3521C39.9611 48.1333 40.047 48.1021 40.4298 48.0786C40.6798 48.063 40.9142 48.0317 40.9611 48.0005C41.0079 47.9771 41.1173 47.7896 41.2032 47.5864C41.5782 46.7114 42.297 46.4146 43.1642 46.7974C43.5079 46.9536 43.5392 46.9536 43.9923 46.8286C44.3986 46.7114 44.5314 46.7114 44.8907 46.7896C45.5392 46.938 45.5782 46.9849 45.4689 47.5239C45.3517 48.063 45.4611 48.3364 45.8204 48.4614C46.1954 48.5864 46.4611 48.4146 46.6642 47.9146C46.8673 47.4146 47.1642 47.188 47.6173 47.188C47.9298 47.188 48.2423 47.4224 48.5314 47.8755C48.6017 47.9849 48.7579 48.0708 48.9376 48.1021C49.172 48.1333 49.2579 48.1099 49.422 47.9458C49.6642 47.7036 49.6876 47.3208 49.4923 47.0317C49.2501 46.6646 48.8829 46.313 48.5704 46.1567C48.1642 45.9458 47.2814 45.8833 46.8595 46.0317C46.5626 46.1411 46.5314 46.1333 46.0392 45.8833C45.3907 45.5474 44.6564 45.4224 44.0392 45.5317C43.6876 45.5864 43.5236 45.5786 43.3282 45.5005C43.1798 45.438 42.797 45.3911 42.4611 45.3911C41.9532 45.3911 41.7736 45.4302 41.3829 45.6177ZM49.8595 53.6724C50.0548 53.7192 50.4689 53.7817 50.7892 53.813L51.3751 53.8677L51.1095 54.1724C50.5782 54.7739 49.7267 54.9458 49.0704 54.5708C48.4454 54.2114 48.0782 54.063 47.6642 53.9849C47.2423 53.9067 46.8595 53.6724 47.1486 53.6724C47.3595 53.6724 48.1251 53.3833 48.3439 53.2192C48.547 53.0786 48.547 53.0786 49.0314 53.3286C49.2892 53.4692 49.6642 53.6255 49.8595 53.6724ZM45.6954 53.5474C45.7032 53.5552 45.9376 54.3442 46.2267 55.313C46.5079 56.2817 46.7579 57.1177 46.7736 57.1646C46.797 57.2427 46.6642 57.2661 46.2423 57.2661C45.9298 57.2661 45.6407 57.2349 45.5861 57.2036C45.5001 57.1489 44.4689 54.0396 44.4689 53.8364C44.4689 53.7896 44.5314 53.7505 44.6095 53.7505C44.6798 53.7505 44.8829 53.6802 45.0548 53.6021C45.3048 53.4849 45.5782 53.4614 45.6954 53.5474Z" fill="white"/>
<path d="M57.8282 47.2502C57.6641 47.383 57.6485 47.4845 57.586 48.508C57.4063 51.6252 56.711 53.0627 54.1563 55.6095C53.5235 56.2424 52.9532 56.8674 52.8828 56.9924C52.6797 57.3986 52.5703 58.1642 52.6094 58.9533C52.6485 59.5861 52.6797 59.7189 52.8282 59.883C53.0313 60.1017 53.4219 60.1486 53.625 59.9767C53.8516 59.797 53.8985 59.5861 53.8672 58.9142C53.8047 57.8127 53.8516 57.7111 55.0469 56.5314C57.8203 53.7814 58.6875 51.9533 58.8203 48.5861C58.8672 47.4924 58.8594 47.4377 58.6953 47.2736C58.4922 47.0705 58.0703 47.0549 57.8282 47.2502Z" fill="white"/>
</g>
<defs>
<clipPath id="clip0_2025_441">
<rect width="40" height="40" fill="white" transform="translate(29 27.8911)"/>
</clipPath>
</defs>
</svg>
