<svg width="248" height="315" viewBox="0 0 248 315" fill="none" xmlns="http://www.w3.org/2000/svg">
<path d="M201.251 99.7961C212.307 108.783 216.583 124.232 215.131 138.409C213.68 152.585 207.296 165.787 200.178 178.135C188.246 198.813 173.949 218.119 157.623 235.536C153.925 216.628 144.28 198.932 130.381 185.571" fill="#FD7765"/>
<path d="M148.675 55.8949C137.858 46.6096 121.89 45.178 108.209 49.1347C94.5079 53.0914 82.6762 61.7206 71.799 70.9263C53.5842 86.3554 37.1391 103.872 22.9013 123.039C42.1701 123.298 61.3196 129.621 76.9294 140.914" fill="#FD7765"/>
<path d="M179.576 74.5253C180.471 82.0211 185.741 89.8948 190.971 94.0702C196.837 98.7625 203.956 100.711 211.074 100.234L132.787 194.001C119.066 210.445 94.5872 212.652 78.1422 198.913C61.6971 185.193 59.4898 160.718 73.2305 144.274L153.646 47.9419C147.323 62.2178 166.293 76.1159 179.576 74.5253Z" fill="#FDB03F"/>
<path d="M161.242 38.8749L220.798 88.5821L240.942 64.4641L246.947 13.7628C247.981 5.03421 239.789 -1.92478 231.337 0.481048L181.366 14.7569L161.242 38.8749Z" fill="#D4F3F5"/>
<path d="M221.375 3.34406L231.358 0.500824C239.809 -1.90501 248.001 5.05399 246.967 13.7826L245.794 23.724L221.375 3.34406Z" fill="#002C44"/>
<path d="M-14.9999 314.014C-12.7727 305.902 -9.90919 297.969 -6.46906 290.294C-4.73904 286.456 -2.86983 282.679 -0.861427 279C0.808929 275.958 3.45358 272.817 4.64669 269.576C6.95337 263.313 -5.59416 262.975 -9.13372 261.106C-13.1505 258.978 -11.9574 256.234 -10.1479 252.735C-6.48901 245.696 -1.97501 239.075 3.59283 233.429C15.9216 220.883 34.6534 213.446 51.516 218.497C54.7573 219.471 58.5554 221.181 60.2058 224.362C65.3362 234.304 69.532 244.583 66.8077 256.095C64.9186 264.068 60.3252 271.147 55.0755 277.41C37.6959 298.108 11.9445 311.588 -14.9999 314.014Z" fill="#FD7765"/>
<path d="M17.1346 273.632C18.4669 268.801 20.1572 264.069 22.2053 259.515C23.2394 257.229 24.3529 254.982 25.546 252.795C26.5403 250.986 28.1113 249.117 28.8271 247.188C30.1992 243.45 22.7224 243.271 20.6345 242.138C18.2482 240.865 18.9441 239.235 20.0378 237.147C22.2252 232.972 24.9098 229.015 28.2107 225.655C35.5484 218.179 46.7039 213.765 56.726 216.767C58.6549 217.344 60.9219 218.378 61.8963 220.267C64.9586 226.192 67.4442 232.296 65.8335 239.155C64.7 243.887 61.9757 248.103 58.8538 251.841C48.4936 264.168 33.1621 272.201 17.1346 273.632Z" fill="#FDB03F"/>
<path d="M207.277 41.3606C208.171 48.8565 213.441 56.73 218.671 60.9054C224.537 65.5978 231.656 67.5463 238.775 67.0691L135.63 190.601L76.0744 140.894L181.346 14.7971C175.003 29.0531 193.973 42.9512 207.277 41.3606Z" fill="#01B8C1"/>
<path d="M197.394 55.5768C189.002 65.6177 180.611 75.6784 172.219 85.7193C171.006 87.1707 168.918 85.083 170.131 83.6316C178.523 73.5907 186.914 63.53 195.306 53.4891C196.539 52.0377 198.607 54.1452 197.394 55.5768Z" fill="white"/>
<path d="M213.302 70.5485C182.878 106.536 152.831 142.862 123.182 179.526C121.989 180.998 119.901 178.91 121.094 177.439C150.743 140.795 180.77 104.469 211.214 68.4608C212.447 67.0094 214.515 69.1169 213.302 70.5485Z" fill="white"/>
</svg>
