<svg width="195" height="183" viewBox="0 0 195 183" fill="none" xmlns="http://www.w3.org/2000/svg">
<path d="M77.8555 64.479C78.3328 72.0146 74.5546 80.7035 70.16 85.7537C65.2284 91.4203 58.5868 94.6215 51.4878 95.4367L145.405 173.556C161.87 187.256 186.329 185.009 200.03 168.546C213.731 152.083 211.484 127.627 195.019 113.928L98.556 33.6805C107.385 46.5447 91.2383 63.6241 77.8555 64.479Z" fill="#FD9143"/>
<path d="M89.4685 26.1054L39.855 85.7341L15.6945 65.6326L0.641469 16.84C-1.9436 8.44942 4.83722 0.118496 13.5867 0.973453L65.308 6.00382L89.4685 26.1054Z" fill="#FDC0B8"/>
<path d="M23.927 1.98767L13.5867 0.973624C4.83726 0.118661 -1.96344 8.44959 0.64151 16.8402L3.60441 26.4038L23.927 1.98767Z" fill="#FD9143"/>
<path d="M44.6473 36.842C45.1245 44.3777 41.3463 53.0665 36.9517 58.1167C32.0202 63.7833 25.3786 66.9845 18.2796 67.7997L142.005 170.713L191.638 111.085L65.3477 6.04349C74.1569 18.9077 58.0101 36.007 44.6473 36.842Z" fill="#FD9143"/>
<path d="M56.7177 48.8714C66.7796 57.2421 76.8415 65.6128 86.9233 73.9835C88.3749 75.1963 90.4827 73.1086 89.0112 71.8958C78.9493 63.5251 68.8874 55.1544 58.8056 46.7837C57.354 45.5907 55.2462 47.6586 56.7177 48.8714Z" fill="white"/>
<path d="M43.7724 66.4677C80.202 96.3914 116.294 126.693 152.067 157.412C153.499 158.645 155.607 156.557 154.155 155.324C118.401 124.625 82.29 94.3037 45.8603 64.38C44.4087 63.187 42.3009 65.2548 43.7724 66.4677Z" fill="white"/>
</svg>
