<svg width="746" height="1250" viewBox="0 0 746 1250" fill="none" xmlns="http://www.w3.org/2000/svg">
<path fill-rule="evenodd" clip-rule="evenodd" d="M1013.36 625.069L1013.87 630.23L1014.25 635.402L1014.5 640.58L1014.61 645.761L1014.6 650.942L1014.45 656.119L1014.18 661.29L1013.79 666.45L1013.27 671.597L1012.63 676.727L1011.87 681.838L1011 686.927L1010.01 691.991L1008.91 697.028L1007.71 702.036L1006.4 707.011L1004.99 711.952L1003.48 716.857L1001.88 721.724L1000.19 726.551L998.408 731.338L996.549 736.083L994.611 740.785L992.6 745.443L990.52 750.056L988.375 754.624L986.17 759.148L983.909 763.626L981.598 768.06L979.241 772.449L976.843 776.795L974.407 781.098L971.94 785.36L969.444 789.582L966.926 793.764L964.388 797.909L961.835 802.018L959.27 806.093L956.697 810.137L954.119 814.15L951.54 818.134L948.961 822.093L946.386 826.027L943.815 829.938L941.25 833.829L938.693 837.7L936.144 841.553L933.605 845.391L931.075 849.214L928.557 853.025L926.05 856.825L923.555 860.615L921.072 864.398L918.602 868.174L916.145 871.946L913.701 875.715L911.269 879.483L908.849 883.249L906.441 887.017L904.044 890.787L901.658 894.56L899.281 898.338L896.913 902.12L894.553 905.908L892.2 909.702L889.851 913.502L887.506 917.31L885.163 921.124L882.82 924.946L880.476 928.774L878.129 932.609L875.776 936.449L873.417 940.295L871.048 944.145L868.668 947.998L866.274 951.853L863.865 955.708L861.437 959.562L858.99 963.413L856.52 967.26L854.026 971.099L851.506 974.93L848.957 978.749L846.377 982.555L843.764 986.344L841.117 990.114L838.433 993.862L835.712 997.586L832.95 1001.28L830.147 1004.95L827.301 1008.58L824.412 1012.17L821.477 1015.73L818.496 1019.24L815.468 1022.71L812.392 1026.13L809.269 1029.49L806.096 1032.81L802.875 1036.06L799.605 1039.26L796.287 1042.39L792.92 1045.46L789.505 1048.47L786.042 1051.4L782.533 1054.27L778.978 1057.06L775.378 1059.78L771.735 1062.42L768.049 1065L764.322 1067.49L760.555 1069.91L756.751 1072.25L752.911 1074.52L749.037 1076.72L745.13 1078.84L741.194 1080.89L737.23 1082.87L733.241 1084.78L729.228 1086.63L725.194 1088.42L721.141 1090.16L717.071 1091.84L712.986 1093.48L708.888 1095.07L704.779 1096.62L700.66 1098.14L696.534 1099.64L692.4 1101.11L688.261 1102.56L684.117 1104L679.97 1105.44L675.818 1106.87L671.664 1108.31L667.507 1109.76L663.347 1111.23L659.184 1112.72L655.016 1114.23L650.844 1115.77L646.666 1117.35L642.482 1118.97L638.289 1120.63L634.086 1122.34L629.871 1124.09L625.644 1125.9L621.4 1127.76L617.139 1129.68L612.858 1131.65L608.554 1133.68L604.226 1135.76L599.87 1137.9L595.485 1140.09L591.068 1142.33L586.617 1144.63L582.129 1146.97L577.603 1149.37L573.035 1151.81L568.424 1154.29L563.767 1156.82L559.063 1159.39L554.31 1161.99L549.504 1164.63L544.646 1167.3L539.732 1170L534.761 1172.73L529.732 1175.47L524.644 1178.24L519.494 1181.01L514.282 1183.8L509.007 1186.59L503.667 1189.38L498.263 1192.17L492.793 1194.95L487.257 1197.72L481.654 1200.47L475.984 1203.2L470.248 1205.9L464.446 1208.57L458.577 1211.2L452.643 1213.79L446.643 1216.33L440.579 1218.82L434.452 1221.25L428.263 1223.61L422.013 1225.91L415.704 1228.13L409.337 1230.28L402.914 1232.34L396.437 1234.31L389.908 1236.18L383.33 1237.96L376.704 1239.63L370.035 1241.2L363.323 1242.65L356.573 1243.98L349.786 1245.19L342.967 1246.28L336.119 1247.23L329.244 1248.05L322.346 1248.73L315.429 1249.26L308.497 1249.65L301.553 1249.9L294.6 1249.99L287.644 1249.92L280.687 1249.7L273.734 1249.32L266.789 1248.78L259.855 1248.07L252.937 1247.2L246.039 1246.16L239.165 1244.95L232.319 1243.57L225.505 1242.02L218.727 1240.3L211.989 1238.41L205.295 1236.35L198.649 1234.12L192.055 1231.71L185.518 1229.13L179.041 1226.38L172.628 1223.46L166.283 1220.37L160.01 1217.11L153.813 1213.69L147.695 1210.1L141.66 1206.34L135.712 1202.42L129.854 1198.33L124.09 1194.09L118.422 1189.69L112.853 1185.14L107.388 1180.44L102.029 1175.58L96.7784 1170.58L91.6394 1165.44L86.6146 1160.15L81.7066 1154.73L76.9179 1149.17L72.2511 1143.48L67.7084 1137.66L63.2923 1131.72L59.005 1125.66L54.8488 1119.47L50.8261 1113.18L46.939 1106.77L43.19 1100.26L39.5814 1093.64L36.1155 1086.91L32.7951 1080.1L29.6225 1073.18L26.6007 1066.17L23.7321 1059.08L21.0192 1051.9L18.4644 1044.63L16.0697 1037.29L13.8371 1029.88L11.7683 1022.39L9.86509 1014.84L8.12868 1007.23L6.56032 999.555L5.16102 991.83L3.93155 984.056L2.8725 976.238L1.98423 968.38L1.26691 960.488L0.720451 952.565L0.344573 944.617L0.138764 936.649L0.102288 928.665L0.234189 920.671L0.533291 912.672L0.998185 904.671L1.62725 896.675L2.41863 888.688L3.37028 880.714L4.47991 872.76L5.74503 864.828L7.16295 856.925L8.73077 849.054L10.4454 841.221L12.3035 833.429L14.3017 825.682L16.4363 817.986L18.7034 810.343L21.099 802.759L23.6191 795.235L26.2593 787.778L29.0152 780.388L31.8822 773.071L34.8556 765.829L37.9306 758.664L41.1024 751.581L44.3659 744.58L47.7161 737.666L51.1479 730.839L54.656 724.101L58.2353 717.456L61.8805 710.903L65.5864 704.445L69.3476 698.082L73.1588 691.816L77.0149 685.647L80.9106 679.576L84.8407 673.603L88.8001 667.727L92.7837 661.95L96.7865 656.271L100.804 650.689L104.83 645.204L108.862 639.814L112.894 634.52L116.921 629.318L120.94 624.209L124.946 619.191L128.936 614.262L132.905 609.42L136.85 604.663L140.766 599.989L144.649 595.396L148.496 590.882L152.3 586.443L156.059 582.078L159.767 577.782L163.419 573.552L167.011 569.386L170.539 565.279L173.997 561.228L177.382 557.228L180.689 553.276L183.914 549.367L187.052 545.496L190.101 541.659L193.056 537.85L195.914 534.066L198.672 530.301L201.327 526.549L203.877 522.806L206.319 519.065L208.65 515.323L210.87 511.572L212.976 507.809L214.967 504.026L216.842 500.22L218.601 496.383L220.243 492.511L221.767 488.598L223.174 484.639L224.464 480.627L225.638 476.559L226.695 472.427L227.638 468.227L228.466 463.954L229.181 459.602L229.784 455.166L230.278 450.64L230.665 446.02L230.947 441.302L231.128 436.481L231.212 431.554L231.203 426.516L231.105 421.365L230.924 416.098L230.664 410.713L230.333 405.208L229.936 399.58L229.479 393.83L228.97 387.957L228.415 381.96L227.822 375.84L227.199 369.598L226.553 363.236L225.891 356.754L225.223 350.157L224.557 343.446L223.9 336.625L223.261 329.698L222.649 322.669L222.071 315.544L221.537 308.327L221.054 301.024L220.63 293.642L220.274 286.186L219.994 278.666L219.796 271.086L219.689 263.456L219.68 255.783L219.776 248.077L219.984 240.344L220.309 232.595L220.759 224.839L221.338 217.084L222.053 209.341L222.908 201.619L223.908 193.928L225.056 186.277L226.358 178.677L227.816 171.136L229.433 163.666L231.212 156.276L233.155 148.975L235.263 141.773L237.537 134.679L239.978 127.703L242.586 120.852L245.362 114.137L248.304 107.564L251.411 101.143L254.682 94.8803L258.115 88.7838L261.707 82.8602L265.456 77.116L269.359 71.5571L273.412 66.1891L277.611 61.0171L281.953 56.0455L286.433 51.2785L291.046 46.7194L295.787 42.3712L300.651 38.2365L305.633 34.3171L310.728 30.6147L315.929 27.1305L321.232 23.8653L326.631 20.8197L332.119 17.9935L337.691 15.3865L343.341 12.9979L349.064 10.8263L354.853 8.87027L360.702 7.12765L366.606 5.59604L372.559 4.27261L378.556 3.15417L384.59 2.23716L390.656 1.51769L396.748 0.991538L402.862 0.654205L408.992 0.500915L415.134 0.526653L421.281 0.726193L427.431 1.09413L433.578 1.62493L439.717 2.31291L445.846 3.15238L451.961 4.13756L458.057 5.2627L464.131 6.52212L470.18 7.91021L476.202 9.42151L482.194 11.0507L488.152 12.7928L494.076 14.6429L499.962 16.5966L505.809 18.6497L511.616 20.7986L517.38 23.0399L523.1 25.3705L528.775 27.7873L534.404 30.2872L539.986 32.8672L545.519 35.5244L551.002 38.2556L556.435 41.0582L561.817 43.9292L567.147 46.8658L572.424 49.8654L577.649 52.9253L582.819 56.0429L587.936 59.2159L592.998 62.4418L598.005 65.7183L602.958 69.0432L607.855 72.4144L612.697 75.8297L617.483 79.2873L622.214 82.7852L626.89 86.3217L631.509 89.895L636.074 93.5035L640.582 97.1457L645.036 100.82L649.434 104.525L653.777 108.26L658.064 112.022L662.297 115.812L666.476 119.627L670.599 123.467L674.669 127.33L678.684 131.216L682.645 135.123L686.553 139.051L690.407 142.998L694.208 146.963L697.956 150.946L701.652 154.946L705.295 158.961L708.886 162.992L712.426 167.036L715.914 171.092L719.352 175.161L722.739 179.241L726.076 183.33L729.363 187.429L732.602 191.535L735.792 195.647L738.935 199.766L742.03 203.888L745.078 208.014L748.081 212.142L751.039 216.271L753.953 220.399L756.824 224.525L759.652 228.648L762.44 232.767L765.187 236.88L767.896 240.985L770.566 245.082L773.201 249.168L775.8 253.243L778.366 257.306L780.9 261.353L783.404 265.385L785.878 269.4L788.326 273.397L790.747 277.374L793.145 281.331L795.52 285.266L797.875 289.18L800.211 293.07L802.529 296.937L804.832 300.78L807.12 304.598L809.397 308.39L811.663 312.157L813.921 315.898L816.171 319.613L818.417 323.301L820.659 326.963L822.899 330.598L825.14 334.206L827.383 337.788L829.629 341.344L831.881 344.873L834.14 348.377L836.408 351.855L838.687 355.308L840.977 358.738L843.282 362.143L845.602 365.526L847.939 368.886L850.295 372.226L852.671 375.545L855.068 378.845L857.487 382.127L859.931 385.392L862.401 388.641L864.897 391.877L867.42 395.099L869.973 398.31L872.556 401.511L875.17 404.703L877.815 407.89L880.492 411.071L883.201 414.251L885.943 417.429L888.718 420.61L891.525 423.794L894.364 426.985L897.235 430.185L900.136 433.395L903.067 436.62L906.026 439.861L827.383 337.788L912.022 446.403L915.056 449.708L918.11 453.041L921.184 456.403L924.273 459.797L927.375 463.225L930.487 466.69L933.607 470.195L936.729 473.741L939.851 477.331L942.969 480.967L946.079 484.65L949.176 488.384L952.257 492.168L955.317 496.006L958.351 499.898L961.354 503.846L964.323 507.85L967.251 511.911L970.134 516.03L972.968 520.208L975.746 524.444L978.464 528.739L981.118 533.093L983.701 537.504L986.21 541.973L988.639 546.498L990.984 551.078L993.24 555.713L995.403 560.4L997.468 565.138L999.431 569.924L1001.29 574.757L1003.04 579.635L1004.67 584.554L1006.19 589.513L1007.59 594.508L1008.87 599.536L1010.02 604.595L1011.05 609.681L1011.95 614.791L1012.72 619.921L1013.36 625.069Z" fill="#F3F6FA"/>
</svg>
