<svg width="263" height="395" viewBox="0 0 263 395" fill="none" xmlns="http://www.w3.org/2000/svg">
<path d="M126.031 321.529H83.4012C83.2884 315.4 83.234 311.665 83.234 310.328C83.234 296.51 85.5162 285.143 90.0875 276.225C94.6559 267.309 103.796 257.279 117.504 246.133C131.212 234.99 139.405 227.689 142.08 224.234C146.201 218.774 148.264 212.756 148.264 206.179C148.264 197.042 144.613 189.211 137.314 182.69C130.013 176.171 120.179 172.912 107.808 172.912C95.8821 172.912 85.9091 176.313 77.8838 183.109C69.8601 189.908 64.3429 200.273 61.3347 214.204L18.2036 208.854C19.4282 188.905 27.9251 171.966 43.6967 158.033C59.467 144.102 80.1674 137.136 105.802 137.136C132.773 137.136 154.225 144.186 170.165 158.283C186.101 172.383 194.071 188.792 194.071 207.516C194.071 217.881 191.146 227.689 185.294 236.939C179.442 246.19 166.931 258.784 147.763 274.72C137.843 282.97 131.685 289.599 129.29 294.615C126.892 299.629 125.806 308.601 126.031 321.529Z" fill="#06402B"/>
<path d="M125.578 341.295H83.9932V382.882H125.578V341.295Z" fill="#06402B"/>
<path d="M129.055 394.955H71.9185V333.603H71.5045L71.1595 310.348C71.1608 298.614 72.692 288.184 75.7104 279.329L78.2427 280.192C75.3199 288.768 73.8369 298.908 73.8356 310.328L74.1412 330.927H74.5948V392.279H129.056L129.055 394.955ZM137.651 347.355H134.975V330.927H135.592L135.426 321.366C135.408 320.324 135.399 319.321 135.399 318.359C135.399 305.531 136.884 300.513 137.77 298.662C138.297 297.562 139.211 296.218 140.489 294.664L142.556 296.365C141.135 298.091 140.483 299.195 140.185 299.817C139.689 300.851 138.074 305.242 138.074 318.359C138.074 319.306 138.084 320.292 138.102 321.319L138.315 333.603H137.651L137.651 347.355ZM110.756 239.511L109.055 237.444L109.888 236.764C127.966 222.07 131.79 217.801 132.532 216.842C134.992 213.585 136.191 210.092 136.191 206.178C136.191 203.462 135.701 201.046 134.691 198.791C134.514 198.396 134.32 198.001 134.104 197.605L136.454 196.325C136.703 196.784 136.929 197.241 137.135 197.697C138.3 200.304 138.867 203.078 138.867 206.178C138.867 210.695 137.491 214.715 134.658 218.467C132.519 221.232 124.109 228.653 111.575 238.842L110.756 239.511ZM48.143 224.734L5.45654 219.439L6.15294 208.113C6.18693 207.548 6.22736 206.983 6.27201 206.419L8.94007 206.633C8.89564 207.179 8.85788 207.728 8.82367 208.277L8.28143 217.092L48.4724 222.079L48.143 224.734ZM203.305 202.597C202.752 194.331 200.766 186.354 197.402 178.889C193.748 170.774 188.385 163.089 181.459 156.047L183.367 154.171C190.516 161.439 196.059 169.386 199.843 177.791C203.338 185.547 205.401 193.834 205.976 202.42L203.305 202.597ZM29.2999 159.112L27.3009 157.333C29.8606 154.458 32.6881 151.65 35.7025 148.986C53.6728 133.111 77.2576 125.062 105.802 125.062C116.761 125.062 127.091 126.165 136.506 128.341L135.902 130.949C126.686 128.819 116.559 127.739 105.802 127.739C77.9293 127.739 54.9403 135.561 37.4742 150.99C34.5396 153.584 31.7889 156.317 29.2999 159.112Z" fill="#06402B"/>
<path d="M209.306 313.346H183.26C183.191 309.601 183.158 307.319 183.158 306.501C183.158 298.06 184.552 291.114 187.345 285.665C190.136 280.218 195.72 274.09 204.096 267.28C212.471 260.472 217.477 256.011 219.111 253.9C221.629 250.564 222.89 246.887 222.89 242.868C222.89 237.286 220.659 232.501 216.199 228.517C211.739 224.534 205.73 222.543 198.172 222.543C190.885 222.543 184.792 224.621 179.889 228.773C174.986 232.928 171.615 239.26 169.778 247.772L143.425 244.503C144.173 232.314 149.365 221.965 159.001 213.452C168.637 204.941 181.284 200.685 196.946 200.685C213.425 200.685 226.532 204.992 236.271 213.605C246.008 222.22 250.877 232.246 250.877 243.686C250.877 250.018 249.089 256.011 245.514 261.662C241.939 267.315 234.295 275.009 222.584 284.746C216.523 289.786 212.761 293.837 211.297 296.901C209.832 299.965 209.169 305.447 209.306 313.346Z" fill="#6A0DAD"/>
<path d="M209.029 325.422H183.622V350.831H209.029V325.422Z" fill="#6A0DAD"/>
<path d="M211.154 358.207H176.245V320.722H175.992L175.781 306.514C175.782 299.344 176.717 292.972 178.562 287.562L180.109 288.089C178.323 293.329 177.417 299.524 177.416 306.502L177.603 319.088H177.88V356.572H211.154V358.207ZM216.407 329.124H214.771V319.087H215.148L215.047 313.246C215.036 312.609 215.03 311.996 215.03 311.408C215.03 303.571 215.938 300.504 216.479 299.374C216.801 298.702 217.359 297.88 218.14 296.931L219.403 297.97C218.535 299.025 218.136 299.7 217.954 300.079C217.652 300.711 216.665 303.394 216.665 311.408C216.665 311.987 216.671 312.589 216.682 313.217L216.812 320.722H216.406L216.407 329.124ZM199.974 263.233L198.934 261.971L199.443 261.555C210.488 252.577 212.825 249.969 213.278 249.383C214.781 247.393 215.514 245.259 215.514 242.868C215.514 241.208 215.214 239.732 214.597 238.354C214.49 238.113 214.371 237.872 214.239 237.63L215.674 236.848C215.827 237.128 215.965 237.408 216.09 237.686C216.802 239.279 217.149 240.974 217.149 242.868C217.149 245.628 216.308 248.084 214.577 250.376C213.27 252.066 208.132 256.599 200.474 262.825L199.974 263.233ZM161.718 254.205L135.638 250.97L136.063 244.05C136.084 243.705 136.109 243.36 136.136 243.015L137.766 243.146C137.739 243.479 137.716 243.815 137.695 244.15L137.363 249.536L161.919 252.583L161.718 254.205ZM256.519 240.68C256.182 235.63 254.968 230.756 252.912 226.195C250.68 221.236 247.403 216.541 243.172 212.238L244.338 211.092C248.705 215.533 252.092 220.388 254.404 225.523C256.539 230.262 257.8 235.325 258.151 240.571L256.519 240.68ZM150.206 214.111L148.984 213.024C150.548 211.268 152.276 209.552 154.117 207.924C165.097 198.225 179.507 193.308 196.947 193.308C203.643 193.308 209.954 193.981 215.706 195.311L215.337 196.904C209.707 195.603 203.519 194.942 196.947 194.942C179.917 194.942 165.871 199.722 155.2 209.149C153.407 210.734 151.726 212.404 150.206 214.111Z" fill="#6A0DAD"/>
<path d="M193.095 102.747C193.095 107.102 189.565 110.631 185.211 110.631C180.857 110.631 177.327 107.101 177.327 102.747C177.327 98.393 180.857 94.8633 185.211 94.8633C189.565 94.8633 193.095 98.393 193.095 102.747Z" fill="#06402B"/>
<path d="M81.4056 2.62097C81.4056 3.6368 80.5821 4.46048 79.5661 4.46048C78.5502 4.46048 77.7266 3.6368 77.7266 2.62097C77.7266 1.60493 78.5502 0.78125 79.5661 0.78125C80.5819 0.78125 81.4056 1.60493 81.4056 2.62097Z" fill="#06402B"/>
<path d="M244.604 29.9523C244.604 31.4037 243.427 32.5804 241.976 32.5804C240.524 32.5804 239.348 31.4037 239.348 29.9523C239.348 28.5009 240.524 27.3242 241.976 27.3242C243.427 27.3242 244.604 28.5009 244.604 29.9523Z" fill="#06402B"/>
<path d="M92.7057 212.335C92.7057 213.206 91.9997 213.911 91.129 213.911C90.258 213.911 89.5522 213.206 89.5522 212.335C89.5522 211.464 90.258 210.758 91.129 210.758C91.9997 210.758 92.7057 211.464 92.7057 212.335Z" fill="#06402B"/>
<path d="M159.983 348.465C159.983 349.916 158.806 351.093 157.355 351.093C155.903 351.093 154.727 349.916 154.727 348.465C154.727 347.014 155.903 345.837 157.355 345.837C158.806 345.837 159.983 347.013 159.983 348.465Z" fill="#06402B"/>
<path d="M263 283.29C263 284.451 262.058 285.392 260.897 285.392C259.736 285.392 258.795 284.451 258.795 283.29C258.795 282.129 259.736 281.188 260.897 281.188C262.058 281.188 263 282.129 263 283.29Z" fill="#06402B"/>
<path d="M254.065 107.214C254.065 109.537 252.182 111.419 249.86 111.419C247.538 111.419 245.655 109.537 245.655 107.214C245.655 104.892 247.538 103.01 249.86 103.01C252.182 103.01 254.065 104.892 254.065 107.214Z" fill="#06402B"/>
<path d="M6.92008 258.358C7.38459 256.679 6.40032 254.941 4.72166 254.477C3.04299 254.012 1.3056 254.997 0.841081 256.675C0.376566 258.354 1.36083 260.091 3.0395 260.556C4.71816 261.02 6.45556 260.036 6.92008 258.358Z" fill="#6A0DAD"/>
<path d="M45.4019 114.31C45.4019 117.939 42.4607 120.88 38.8321 120.88C35.2035 120.88 32.2622 117.939 32.2622 114.31C32.2622 110.682 35.2035 107.74 38.8321 107.74C42.4607 107.74 45.4019 110.682 45.4019 114.31Z" fill="#6A0DAD"/>
<path d="M158.406 14.4465C158.406 17.2041 156.17 19.4397 153.413 19.4397C150.655 19.4397 148.419 17.2041 148.419 14.4465C148.419 11.6887 150.655 9.45312 153.413 9.45312C156.17 9.45335 158.406 11.6889 158.406 14.4465Z" fill="#6A0DAD"/>
<path d="M112.678 83.5629C115.001 83.5629 116.883 81.6804 116.883 79.3581C116.883 77.0359 115.001 75.1533 112.678 75.1533C110.356 75.1533 108.474 77.0359 108.474 79.3581C108.474 81.6804 110.356 83.5629 112.678 83.5629Z" fill="#6A0DAD"/>
<path d="M234.617 165.819C234.617 168.576 232.382 170.812 229.624 170.812C226.866 170.812 224.631 168.576 224.631 165.819C224.631 163.061 226.866 160.825 229.624 160.825C232.382 160.825 234.617 163.061 234.617 165.819Z" fill="#6A0DAD"/>
<path d="M54.3368 351.093C54.3368 353.996 51.9835 356.349 49.0809 356.349C46.178 356.349 43.8247 353.996 43.8247 351.093C43.8247 348.19 46.178 345.837 49.0809 345.837C51.9837 345.837 54.3368 348.19 54.3368 351.093Z" fill="#6A0DAD"/>
</svg>
