<svg width="290" height="298" viewBox="0 0 290 298" fill="none" xmlns="http://www.w3.org/2000/svg">
<g filter="url(#filter0_f_2036_441)">
<rect x="56" y="118.063" width="177.786" height="123.799" rx="52.1258" fill="#1A237E" fill-opacity="0.2"/>
</g>
<g filter="url(#filter1_d_2036_441)">
<path d="M244.41 131.057C252.788 125.693 253.028 113.538 244.868 107.847L156.306 46.0803C151.732 42.8903 145.699 42.7278 140.96 45.6671L46.911 103.999C38.1883 109.409 38.0888 122.066 46.7253 127.613L140.569 187.882C145.16 190.83 151.047 190.834 155.642 187.892L244.41 131.057Z" fill="#F2F2FF"/>
</g>
<path d="M133.628 134.855C131.365 134.855 129.458 134.378 127.91 133.425C126.361 132.442 125.125 131.161 124.201 129.582C123.278 127.974 122.608 126.217 122.191 124.31C121.803 122.404 121.61 120.512 121.61 118.636C121.61 116.759 121.848 114.853 122.325 112.917C122.831 110.981 123.591 109.209 124.603 107.6C125.616 105.962 126.882 104.651 128.401 103.668C129.92 102.656 131.722 102.149 133.807 102.149C135.982 102.149 137.813 102.641 139.303 103.624C140.822 104.607 142.028 105.902 142.922 107.511C143.845 109.089 144.515 110.832 144.932 112.738C145.349 114.645 145.558 116.536 145.558 118.413C145.558 120.259 145.32 122.151 144.843 124.087C144.396 126.023 143.681 127.81 142.698 129.448C141.745 131.057 140.509 132.367 138.99 133.38C137.501 134.363 135.714 134.855 133.628 134.855ZM133.897 132.174C134.999 132.174 135.922 131.816 136.667 131.101C137.411 130.387 137.977 129.433 138.364 128.242C138.782 127.021 139.079 125.651 139.258 124.131C139.437 122.583 139.526 120.989 139.526 119.351C139.526 117.534 139.437 115.762 139.258 114.034C139.109 112.306 138.826 110.758 138.409 109.387C137.992 107.987 137.396 106.87 136.622 106.036C135.877 105.202 134.909 104.785 133.718 104.785C132.556 104.785 131.588 105.143 130.814 105.858C130.069 106.573 129.458 107.541 128.982 108.762C128.505 109.983 128.163 111.368 127.954 112.917C127.776 114.436 127.686 116.03 127.686 117.698C127.686 118.949 127.731 120.244 127.82 121.585C127.91 122.925 128.073 124.221 128.312 125.472C128.58 126.723 128.937 127.855 129.384 128.867C129.861 129.88 130.456 130.684 131.171 131.28C131.916 131.876 132.824 132.174 133.897 132.174ZM166.149 127.616C166.149 128.361 166.134 129.076 166.104 129.761C166.074 130.416 166.03 130.953 165.97 131.37C166.506 131.31 167.102 131.28 167.757 131.28C168.442 131.25 168.978 131.235 169.366 131.235V134.14H157.123V131.682H157.392C158.196 131.653 158.836 131.518 159.313 131.28C159.819 131.012 160.191 130.565 160.43 129.94C160.698 129.285 160.832 128.376 160.832 127.214V125.874H148.232V122.344L163.825 102.149H166.149V122.3H170.572V125.874H166.149V127.616ZM160.787 110.504L151.985 122.121L160.832 122.21L160.877 110.504H160.787Z" fill="#1A237E"/>
<defs>
<filter id="filter0_f_2036_441" x="0.15094" y="62.2144" width="289.484" height="235.497" filterUnits="userSpaceOnUse" color-interpolation-filters="sRGB">
<feFlood flood-opacity="0" result="BackgroundImageFix"/>
<feBlend mode="normal" in="SourceGraphic" in2="BackgroundImageFix" result="shape"/>
<feGaussianBlur stdDeviation="27.9245" result="effect1_foregroundBlur_2036_441"/>
</filter>
<filter id="filter1_d_2036_441" x="39.3773" y="43.5703" width="212.397" height="156.764" filterUnits="userSpaceOnUse" color-interpolation-filters="sRGB">
<feFlood flood-opacity="0" result="BackgroundImageFix"/>
<feColorMatrix in="SourceAlpha" type="matrix" values="0 0 0 0 0 0 0 0 0 0 0 0 0 0 0 0 0 0 127 0" result="hardAlpha"/>
<feOffset dy="9.30818"/>
<feGaussianBlur stdDeviation="0.465409"/>
<feComposite in2="hardAlpha" operator="out"/>
<feColorMatrix type="matrix" values="0 0 0 0 0.101961 0 0 0 0 0.137255 0 0 0 0 0.494118 0 0 0 1 0"/>
<feBlend mode="normal" in2="BackgroundImageFix" result="effect1_dropShadow_2036_441"/>
<feBlend mode="normal" in="SourceGraphic" in2="effect1_dropShadow_2036_441" result="shape"/>
</filter>
</defs>
</svg>
