<svg width="291" height="298" viewBox="0 0 291 298" fill="none" xmlns="http://www.w3.org/2000/svg">
<g filter="url(#filter0_f_2036_439)">
<rect x="56.4087" y="118.063" width="177.786" height="123.799" rx="52.1258" fill="#6A0DAD" fill-opacity="0.2"/>
</g>
<g filter="url(#filter1_d_2036_439)">
<path d="M244.818 131.057C253.197 125.693 253.437 113.538 245.277 107.847L156.715 46.0803C152.141 42.8903 146.108 42.7278 141.369 45.6671L47.3197 103.999C38.597 109.409 38.4974 122.066 47.134 127.613L140.977 187.882C145.568 190.83 151.456 190.834 156.051 187.892L244.818 131.057Z" fill="#F6EAFF"/>
</g>
<path d="M133.771 134.855C131.507 134.855 129.601 134.378 128.052 133.425C126.503 132.442 125.267 131.161 124.344 129.582C123.42 127.974 122.75 126.217 122.333 124.31C121.946 122.404 121.752 120.512 121.752 118.636C121.752 116.759 121.991 114.853 122.467 112.917C122.974 110.981 123.733 109.209 124.746 107.6C125.759 105.962 127.024 104.651 128.544 103.668C130.063 102.656 131.865 102.149 133.95 102.149C136.124 102.149 137.956 102.641 139.445 103.624C140.964 104.607 142.171 105.902 143.064 107.511C143.988 109.089 144.658 110.832 145.075 112.738C145.492 114.645 145.7 116.536 145.7 118.413C145.7 120.259 145.462 122.151 144.985 124.087C144.539 126.023 143.824 127.81 142.841 129.448C141.888 131.057 140.652 132.367 139.133 133.38C137.643 134.363 135.856 134.855 133.771 134.855ZM134.039 132.174C135.141 132.174 136.065 131.816 136.809 131.101C137.554 130.387 138.12 129.433 138.507 128.242C138.924 127.021 139.222 125.651 139.401 124.131C139.579 122.583 139.669 120.989 139.669 119.351C139.669 117.534 139.579 115.762 139.401 114.034C139.252 112.306 138.969 110.758 138.552 109.387C138.135 107.987 137.539 106.87 136.765 106.036C136.02 105.202 135.052 104.785 133.86 104.785C132.699 104.785 131.731 105.143 130.956 105.858C130.212 106.573 129.601 107.541 129.124 108.762C128.648 109.983 128.305 111.368 128.097 112.917C127.918 114.436 127.829 116.03 127.829 117.698C127.829 118.949 127.873 120.244 127.963 121.585C128.052 122.925 128.216 124.221 128.454 125.472C128.722 126.723 129.08 127.855 129.526 128.867C130.003 129.88 130.599 130.684 131.314 131.28C132.058 131.876 132.967 132.174 134.039 132.174ZM149.583 134.14C149.583 132.591 149.792 131.206 150.209 129.984C150.656 128.763 151.236 127.661 151.951 126.678C152.696 125.665 153.515 124.727 154.409 123.863C155.302 122.97 156.226 122.076 157.179 121.183C159.264 119.217 160.753 117.43 161.647 115.821C162.54 114.183 162.987 112.589 162.987 111.04C162.987 110.028 162.853 109.045 162.585 108.092C162.347 107.138 161.885 106.364 161.2 105.768C160.515 105.143 159.547 104.83 158.296 104.83C157.372 104.83 156.538 105.068 155.794 105.545C155.049 105.992 154.513 106.528 154.185 107.153C154.483 107.481 154.692 107.853 154.811 108.27C154.96 108.658 155.034 109.015 155.034 109.343C155.034 109.67 154.945 110.043 154.766 110.46C154.587 110.877 154.289 111.234 153.872 111.532C153.485 111.83 152.949 111.979 152.264 111.979C151.43 111.919 150.79 111.606 150.343 111.04C149.896 110.445 149.673 109.76 149.673 108.985C149.673 108.3 149.881 107.57 150.298 106.796C150.715 106.022 151.326 105.277 152.13 104.562C152.964 103.847 153.977 103.266 155.168 102.819C156.36 102.373 157.73 102.149 159.279 102.149C160.47 102.149 161.647 102.298 162.808 102.596C163.97 102.894 165.027 103.371 165.981 104.026C166.934 104.651 167.693 105.5 168.259 106.573C168.825 107.615 169.108 108.911 169.108 110.46C169.108 111.204 168.959 111.994 168.661 112.828C168.393 113.662 167.902 114.57 167.187 115.553C166.472 116.536 165.504 117.638 164.283 118.859C163.061 120.051 161.513 121.421 159.636 122.97C157.849 124.429 156.479 125.77 155.526 126.991C154.602 128.212 154.051 129.195 153.872 129.94L162.362 130.163C163.285 130.193 164.089 130.163 164.774 130.074C165.489 129.955 166.04 129.687 166.427 129.27C166.844 128.823 167.053 128.138 167.053 127.214H169.421L169.108 134.14H149.583Z" fill="#6A0DAD"/>
<defs>
<filter id="filter0_f_2036_439" x="0.559631" y="62.2144" width="289.484" height="235.497" filterUnits="userSpaceOnUse" color-interpolation-filters="sRGB">
<feFlood flood-opacity="0" result="BackgroundImageFix"/>
<feBlend mode="normal" in="SourceGraphic" in2="BackgroundImageFix" result="shape"/>
<feGaussianBlur stdDeviation="27.9245" result="effect1_foregroundBlur_2036_439"/>
</filter>
<filter id="filter1_d_2036_439" x="40.7166" y="43.5703" width="210.536" height="155.834" filterUnits="userSpaceOnUse" color-interpolation-filters="sRGB">
<feFlood flood-opacity="0" result="BackgroundImageFix"/>
<feColorMatrix in="SourceAlpha" type="matrix" values="0 0 0 0 0 0 0 0 0 0 0 0 0 0 0 0 0 0 127 0" result="hardAlpha"/>
<feOffset dy="9.30818"/>
<feComposite in2="hardAlpha" operator="out"/>
<feColorMatrix type="matrix" values="0 0 0 0 0.415686 0 0 0 0 0.0509804 0 0 0 0 0.678431 0 0 0 1 0"/>
<feBlend mode="normal" in2="BackgroundImageFix" result="effect1_dropShadow_2036_439"/>
<feBlend mode="normal" in="SourceGraphic" in2="effect1_dropShadow_2036_439" result="shape"/>
</filter>
</defs>
</svg>
