<svg width="290" height="293" viewBox="0 0 290 293" fill="none" xmlns="http://www.w3.org/2000/svg">
<g filter="url(#filter0_f_2036_438)">
<rect x="56" y="112.781" width="177.786" height="123.799" rx="52.1258" fill="#FFD700" fill-opacity="0.2"/>
</g>
<g filter="url(#filter1_d_2036_438)">
<path d="M244.41 131.057C252.788 125.693 253.028 113.538 244.868 107.847L156.306 46.0803C151.732 42.8903 145.699 42.7278 140.96 45.6671L46.911 103.999C38.1883 109.409 38.0888 122.066 46.7253 127.613L140.569 187.882C145.16 190.83 151.047 190.834 155.642 187.892L244.41 131.057Z" fill="#FFFCEE"/>
</g>
<mask id="path-3-outside-1_2036_438" maskUnits="userSpaceOnUse" x="123.321" y="105.793" width="45" height="35" fill="black">
<rect fill="white" x="123.321" y="105.793" width="45" height="35"/>
<path d="M136.598 139.508C134.334 139.508 132.428 139.031 130.879 138.078C129.33 137.095 128.094 135.814 127.171 134.236C126.247 132.627 125.577 130.87 125.16 128.964C124.773 127.057 124.579 125.166 124.579 123.289C124.579 121.413 124.818 119.506 125.294 117.57C125.801 115.634 126.56 113.862 127.573 112.253C128.586 110.615 129.851 109.305 131.371 108.322C132.89 107.309 134.692 106.803 136.777 106.803C138.951 106.803 140.783 107.294 142.272 108.277C143.791 109.26 144.998 110.556 145.891 112.164C146.815 113.743 147.485 115.485 147.902 117.392C148.319 119.298 148.527 121.189 148.527 123.066C148.527 124.913 148.289 126.804 147.813 128.74C147.366 130.676 146.651 132.463 145.668 134.102C144.715 135.71 143.479 137.021 141.96 138.033C140.47 139.016 138.683 139.508 136.598 139.508ZM136.866 136.827C137.968 136.827 138.892 136.47 139.636 135.755C140.381 135.04 140.947 134.087 141.334 132.895C141.751 131.674 142.049 130.304 142.228 128.785C142.406 127.236 142.496 125.642 142.496 124.004C142.496 122.187 142.406 120.415 142.228 118.687C142.079 116.96 141.796 115.411 141.379 114.041C140.962 112.641 140.366 111.524 139.592 110.69C138.847 109.856 137.879 109.439 136.687 109.439C135.526 109.439 134.558 109.796 133.783 110.511C133.039 111.226 132.428 112.194 131.951 113.415C131.475 114.636 131.132 116.021 130.924 117.57C130.745 119.089 130.656 120.683 130.656 122.351C130.656 123.602 130.7 124.898 130.79 126.238C130.879 127.578 131.043 128.874 131.281 130.125C131.549 131.376 131.907 132.508 132.354 133.521C132.83 134.534 133.426 135.338 134.141 135.933C134.885 136.529 135.794 136.827 136.866 136.827ZM154.151 138.793V136.336C154.955 136.306 155.595 136.172 156.072 135.933C156.578 135.695 156.951 135.278 157.189 134.682C157.427 134.057 157.546 133.178 157.546 132.046L157.502 113.058L152.498 116.141L151.113 113.951L160.853 106.803H163.131V132.27C163.131 133.014 163.116 133.729 163.087 134.414C163.087 135.07 163.057 135.591 162.997 135.978C163.533 135.948 164.144 135.919 164.829 135.889C165.544 135.859 166.095 135.844 166.482 135.844V138.793H154.151Z"/>
</mask>
<path d="M136.598 139.508C134.334 139.508 132.428 139.031 130.879 138.078C129.33 137.095 128.094 135.814 127.171 134.236C126.247 132.627 125.577 130.87 125.16 128.964C124.773 127.057 124.579 125.166 124.579 123.289C124.579 121.413 124.818 119.506 125.294 117.57C125.801 115.634 126.56 113.862 127.573 112.253C128.586 110.615 129.851 109.305 131.371 108.322C132.89 107.309 134.692 106.803 136.777 106.803C138.951 106.803 140.783 107.294 142.272 108.277C143.791 109.26 144.998 110.556 145.891 112.164C146.815 113.743 147.485 115.485 147.902 117.392C148.319 119.298 148.527 121.189 148.527 123.066C148.527 124.913 148.289 126.804 147.813 128.74C147.366 130.676 146.651 132.463 145.668 134.102C144.715 135.71 143.479 137.021 141.96 138.033C140.47 139.016 138.683 139.508 136.598 139.508ZM136.866 136.827C137.968 136.827 138.892 136.47 139.636 135.755C140.381 135.04 140.947 134.087 141.334 132.895C141.751 131.674 142.049 130.304 142.228 128.785C142.406 127.236 142.496 125.642 142.496 124.004C142.496 122.187 142.406 120.415 142.228 118.687C142.079 116.96 141.796 115.411 141.379 114.041C140.962 112.641 140.366 111.524 139.592 110.69C138.847 109.856 137.879 109.439 136.687 109.439C135.526 109.439 134.558 109.796 133.783 110.511C133.039 111.226 132.428 112.194 131.951 113.415C131.475 114.636 131.132 116.021 130.924 117.57C130.745 119.089 130.656 120.683 130.656 122.351C130.656 123.602 130.7 124.898 130.79 126.238C130.879 127.578 131.043 128.874 131.281 130.125C131.549 131.376 131.907 132.508 132.354 133.521C132.83 134.534 133.426 135.338 134.141 135.933C134.885 136.529 135.794 136.827 136.866 136.827ZM154.151 138.793V136.336C154.955 136.306 155.595 136.172 156.072 135.933C156.578 135.695 156.951 135.278 157.189 134.682C157.427 134.057 157.546 133.178 157.546 132.046L157.502 113.058L152.498 116.141L151.113 113.951L160.853 106.803H163.131V132.27C163.131 133.014 163.116 133.729 163.087 134.414C163.087 135.07 163.057 135.591 162.997 135.978C163.533 135.948 164.144 135.919 164.829 135.889C165.544 135.859 166.095 135.844 166.482 135.844V138.793H154.151Z" fill="#FFD700"/>
<path d="M130.879 138.078L130.38 138.864L130.391 138.871L130.879 138.078ZM127.171 134.236L126.363 134.699L126.367 134.706L127.171 134.236ZM125.16 128.964L124.248 129.149L124.251 129.162L125.16 128.964ZM125.294 117.57L124.394 117.335L124.39 117.348L125.294 117.57ZM127.573 112.253L128.361 112.749L128.365 112.743L127.573 112.253ZM131.371 108.322L131.876 109.103L131.887 109.096L131.371 108.322ZM142.272 108.277L141.76 109.054L141.767 109.059L142.272 108.277ZM145.891 112.164L145.078 112.616L145.083 112.625L145.088 112.634L145.891 112.164ZM147.813 128.74L146.909 128.518L146.906 128.531L147.813 128.74ZM145.668 134.102L144.87 133.623L144.867 133.627L145.668 134.102ZM141.96 138.033L142.472 138.81L142.476 138.808L141.96 138.033ZM139.636 135.755L138.992 135.083L139.636 135.755ZM141.334 132.895L140.453 132.594L140.449 132.608L141.334 132.895ZM142.228 128.785L143.152 128.894L143.152 128.892L142.228 128.785ZM142.228 118.687L141.3 118.767L141.301 118.775L141.302 118.783L142.228 118.687ZM141.379 114.041L140.487 114.306L140.488 114.312L141.379 114.041ZM139.592 110.69L138.897 111.31L138.903 111.316L138.909 111.323L139.592 110.69ZM133.783 110.511L133.152 109.827L133.145 109.833L133.139 109.84L133.783 110.511ZM130.924 117.57L130.001 117.446L130 117.454L129.999 117.462L130.924 117.57ZM130.79 126.238L129.861 126.3L130.79 126.238ZM131.281 130.125L130.367 130.299L130.369 130.31L130.371 130.32L131.281 130.125ZM132.354 133.521L131.502 133.897L131.506 133.907L131.511 133.917L132.354 133.521ZM134.141 135.933L133.545 136.649L133.552 136.655L133.559 136.66L134.141 135.933ZM136.598 138.577C134.465 138.577 132.737 138.129 131.367 137.285L130.391 138.871C132.119 139.934 134.204 140.439 136.598 140.439V138.577ZM131.378 137.292C129.954 136.389 128.822 135.216 127.974 133.766L126.367 134.706C127.366 136.413 128.707 137.802 130.38 138.864L131.378 137.292ZM127.978 133.772C127.104 132.25 126.467 130.583 126.069 128.765L124.251 129.162C124.687 131.157 125.39 133.004 126.363 134.699L127.978 133.772ZM126.072 128.778C125.697 126.931 125.51 125.101 125.51 123.289H123.649C123.649 125.23 123.849 127.184 124.248 129.149L126.072 128.778ZM125.51 123.289C125.51 121.492 125.738 119.661 126.198 117.793L124.39 117.348C123.897 119.352 123.649 121.333 123.649 123.289H125.51ZM126.195 117.806C126.678 115.957 127.401 114.273 128.361 112.749L126.785 111.758C125.719 113.451 124.923 115.312 124.394 117.335L126.195 117.806ZM128.365 112.743C129.31 111.214 130.48 110.006 131.876 109.103L130.865 107.54C129.223 108.603 127.862 110.016 126.781 111.764L128.365 112.743ZM131.887 109.096C133.232 108.199 134.849 107.733 136.777 107.733V105.872C134.535 105.872 132.547 106.419 130.854 107.547L131.887 109.096ZM136.777 107.733C138.809 107.733 140.453 108.191 141.76 109.054L142.785 107.5C141.113 106.397 139.093 105.872 136.777 105.872V107.733ZM141.767 109.059C143.155 109.957 144.257 111.139 145.078 112.616L146.705 111.712C145.739 109.973 144.427 108.563 142.778 107.496L141.767 109.059ZM145.088 112.634C145.959 114.123 146.595 115.773 146.993 117.591L148.811 117.193C148.375 115.197 147.671 113.363 146.695 111.694L145.088 112.634ZM146.993 117.591C147.396 119.434 147.597 121.259 147.597 123.066H149.458C149.458 121.12 149.242 119.162 148.811 117.193L146.993 117.591ZM147.597 123.066C147.597 124.832 147.369 126.649 146.909 128.518L148.716 128.963C149.209 126.959 149.458 124.993 149.458 123.066H147.597ZM146.906 128.531C146.48 130.376 145.801 132.071 144.87 133.623L146.466 134.581C147.501 132.855 148.252 130.977 148.72 128.949L146.906 128.531ZM144.867 133.627C143.983 135.119 142.843 136.326 141.443 137.259L142.476 138.808C144.114 137.716 145.446 136.302 146.469 134.576L144.867 133.627ZM141.447 137.257C140.134 138.123 138.532 138.577 136.598 138.577V140.439C138.834 140.439 140.807 139.91 142.472 138.81L141.447 137.257ZM136.866 137.758C138.191 137.758 139.35 137.32 140.281 136.426L138.992 135.083C138.433 135.62 137.746 135.896 136.866 135.896V137.758ZM140.281 136.426C141.157 135.585 141.795 134.489 142.219 133.183L140.449 132.608C140.099 133.684 139.604 134.495 138.992 135.083L140.281 136.426ZM142.215 133.196C142.657 131.902 142.967 130.466 143.152 128.894L141.303 128.676C141.131 130.141 140.845 131.446 140.453 132.595L142.215 133.196ZM143.152 128.892C143.335 127.305 143.427 125.676 143.427 124.004H141.565C141.565 125.609 141.477 127.166 141.303 128.678L143.152 128.892ZM143.427 124.004C143.427 122.157 143.336 120.352 143.154 118.592L141.302 118.783C141.477 120.477 141.565 122.218 141.565 124.004H143.427ZM143.155 118.607C143.002 116.828 142.709 115.213 142.269 113.77L140.488 114.312C140.883 115.608 141.156 117.091 141.3 118.767L143.155 118.607ZM142.271 113.775C141.824 112.276 141.169 111.021 140.274 110.056L138.909 111.323C139.563 112.027 140.099 113.006 140.487 114.306L142.271 113.775ZM140.286 110.07C139.352 109.024 138.124 108.508 136.687 108.508V110.37C137.633 110.37 138.342 110.688 138.897 111.31L140.286 110.07ZM136.687 108.508C135.318 108.508 134.116 108.937 133.152 109.827L134.415 111.195C134.999 110.656 135.734 110.37 136.687 110.37V108.508ZM133.139 109.84C132.274 110.67 131.597 111.763 131.084 113.077L132.819 113.754C133.259 112.625 133.803 111.782 134.428 111.182L133.139 109.84ZM131.084 113.077C130.576 114.379 130.218 115.837 130.001 117.446L131.846 117.695C132.047 116.205 132.373 114.894 132.819 113.754L131.084 113.077ZM129.999 117.462C129.816 119.02 129.725 120.65 129.725 122.351H131.587C131.587 120.716 131.674 119.159 131.848 117.679L129.999 117.462ZM129.725 122.351C129.725 123.624 129.77 124.941 129.861 126.3L131.719 126.176C131.63 124.855 131.587 123.58 131.587 122.351H129.725ZM129.861 126.3C129.953 127.676 130.121 129.009 130.367 130.299L132.196 129.951C131.965 128.739 131.805 127.481 131.719 126.176L129.861 126.3ZM130.371 130.32C130.65 131.624 131.026 132.818 131.502 133.897L133.205 133.145C132.788 132.199 132.448 131.128 132.191 129.93L130.371 130.32ZM131.511 133.917C132.034 135.028 132.707 135.95 133.545 136.649L134.737 135.218C134.145 134.726 133.626 134.039 133.196 133.124L131.511 133.917ZM133.559 136.66C134.489 137.404 135.61 137.758 136.866 137.758V135.896C135.977 135.896 135.281 135.654 134.722 135.207L133.559 136.66ZM154.151 138.793H153.22V139.724H154.151V138.793ZM154.151 136.336L154.116 135.405L153.22 135.439V136.336H154.151ZM156.072 135.933L155.676 135.091L155.666 135.096L155.656 135.101L156.072 135.933ZM157.189 134.682L158.053 135.028L158.056 135.021L158.059 135.014L157.189 134.682ZM157.546 132.046H158.477L158.477 132.044L157.546 132.046ZM157.502 113.058L158.432 113.056L158.429 111.393L157.013 112.265L157.502 113.058ZM152.498 116.141L151.711 116.638L152.203 117.416L152.986 116.933L152.498 116.141ZM151.113 113.951L150.562 113.201L149.861 113.715L150.326 114.449L151.113 113.951ZM160.853 106.803V105.872H160.548L160.302 106.052L160.853 106.803ZM163.131 106.803H164.062V105.872H163.131V106.803ZM163.087 134.414L162.157 134.374L162.156 134.394V134.414H163.087ZM162.997 135.978L162.077 135.837L161.903 136.971L163.049 136.908L162.997 135.978ZM164.829 135.889L164.79 134.959L164.789 134.959L164.829 135.889ZM166.482 135.844H167.413V134.913H166.482V135.844ZM166.482 138.793V139.724H167.413V138.793H166.482ZM155.082 138.793V136.336H153.22V138.793H155.082ZM154.185 137.266C155.061 137.233 155.848 137.086 156.488 136.766L155.656 135.101C155.343 135.257 154.849 135.378 154.116 135.405L154.185 137.266ZM156.468 136.776C157.219 136.422 157.741 135.808 158.053 135.028L156.325 134.337C156.16 134.748 155.937 134.968 155.676 135.091L156.468 136.776ZM158.059 135.014C158.356 134.234 158.477 133.224 158.477 132.046H156.616C156.616 133.132 156.499 133.88 156.319 134.351L158.059 135.014ZM158.477 132.044L158.432 113.056L156.571 113.06L156.616 132.049L158.477 132.044ZM157.013 112.265L152.009 115.348L152.986 116.933L157.99 113.85L157.013 112.265ZM153.284 115.643L151.899 113.454L150.326 114.449L151.711 116.638L153.284 115.643ZM151.663 114.702L161.403 107.553L160.302 106.052L150.562 113.201L151.663 114.702ZM160.853 107.733H163.131V105.872H160.853V107.733ZM162.2 106.803V132.27H164.062V106.803H162.2ZM162.2 132.27C162.2 133.002 162.186 133.703 162.157 134.374L164.016 134.455C164.047 133.755 164.062 133.027 164.062 132.27H162.2ZM162.156 134.414C162.156 135.049 162.126 135.517 162.077 135.837L163.917 136.12C163.987 135.665 164.017 135.09 164.017 134.414H162.156ZM163.049 136.908C163.58 136.878 164.187 136.848 164.869 136.819L164.789 134.959C164.101 134.989 163.486 135.019 162.946 135.049L163.049 136.908ZM164.868 136.819C165.579 136.789 166.114 136.775 166.482 136.775V134.913C166.075 134.913 165.509 134.929 164.79 134.959L164.868 136.819ZM165.551 135.844V138.793H167.413V135.844H165.551ZM166.482 137.862H154.151V139.724H166.482V137.862Z" fill="#FFD700" mask="url(#path-3-outside-1_2036_438)"/>
<defs>
<filter id="filter0_f_2036_438" x="0.15094" y="56.9322" width="289.484" height="235.497" filterUnits="userSpaceOnUse" color-interpolation-filters="sRGB">
<feFlood flood-opacity="0" result="BackgroundImageFix"/>
<feBlend mode="normal" in="SourceGraphic" in2="BackgroundImageFix" result="shape"/>
<feGaussianBlur stdDeviation="27.9245" result="effect1_foregroundBlur_2036_438"/>
</filter>
<filter id="filter1_d_2036_438" x="39.377" y="43.5703" width="212.397" height="156.764" filterUnits="userSpaceOnUse" color-interpolation-filters="sRGB">
<feFlood flood-opacity="0" result="BackgroundImageFix"/>
<feColorMatrix in="SourceAlpha" type="matrix" values="0 0 0 0 0 0 0 0 0 0 0 0 0 0 0 0 0 0 127 0" result="hardAlpha"/>
<feOffset dy="9.30818"/>
<feGaussianBlur stdDeviation="0.465409"/>
<feComposite in2="hardAlpha" operator="out"/>
<feColorMatrix type="matrix" values="0 0 0 0 1 0 0 0 0 0.843137 0 0 0 0 0 0 0 0 1 0"/>
<feBlend mode="normal" in2="BackgroundImageFix" result="effect1_dropShadow_2036_438"/>
<feBlend mode="normal" in="SourceGraphic" in2="effect1_dropShadow_2036_438" result="shape"/>
</filter>
</defs>
</svg>
