<svg width="300" height="303" viewBox="0 0 300 303" fill="none" xmlns="http://www.w3.org/2000/svg">
<g filter="url(#filter0_f_2036_440)">
<rect x="61" y="118.063" width="177.786" height="123.799" rx="52.1258" fill="#CE006A" fill-opacity="0.2"/>
</g>
<g filter="url(#filter1_d_2036_440)">
<path d="M249.41 131.057C257.788 125.693 258.028 113.538 249.868 107.847L161.306 46.0803C156.732 42.8903 150.699 42.7278 145.96 45.6671L51.911 103.999C43.1883 109.409 43.0888 122.066 51.7253 127.613L145.569 187.882C150.16 190.83 156.047 190.834 160.642 187.892L249.41 131.057Z" fill="#FFE8F4"/>
</g>
<path d="M138.264 134.854C136 134.854 134.093 134.377 132.545 133.424C130.996 132.441 129.76 131.16 128.836 129.581C127.913 127.973 127.243 126.216 126.826 124.309C126.438 122.403 126.245 120.512 126.245 118.635C126.245 116.758 126.483 114.852 126.96 112.916C127.466 110.98 128.226 109.208 129.238 107.599C130.251 105.961 131.517 104.65 133.036 103.667C134.555 102.655 136.357 102.148 138.442 102.148C140.617 102.148 142.448 102.64 143.938 103.623C145.457 104.606 146.663 105.901 147.557 107.51C148.48 109.089 149.15 110.831 149.567 112.737C149.984 114.644 150.193 116.535 150.193 118.412C150.193 120.258 149.955 122.15 149.478 124.086C149.031 126.022 148.316 127.809 147.333 129.447C146.38 131.056 145.144 132.366 143.625 133.379C142.136 134.362 140.349 134.854 138.264 134.854ZM138.532 132.173C139.634 132.173 140.557 131.815 141.302 131.1C142.046 130.386 142.612 129.432 143 128.241C143.417 127.02 143.714 125.65 143.893 124.131C144.072 122.582 144.161 120.988 144.161 119.35C144.161 117.533 144.072 115.761 143.893 114.033C143.744 112.305 143.461 110.757 143.044 109.386C142.627 107.986 142.031 106.869 141.257 106.035C140.512 105.201 139.544 104.784 138.353 104.784C137.191 104.784 136.223 105.142 135.449 105.857C134.704 106.572 134.093 107.54 133.617 108.761C133.14 109.982 132.798 111.367 132.589 112.916C132.411 114.435 132.321 116.029 132.321 117.697C132.321 118.948 132.366 120.243 132.455 121.584C132.545 122.924 132.708 124.22 132.947 125.471C133.215 126.722 133.572 127.854 134.019 128.867C134.496 129.879 135.091 130.683 135.806 131.279C136.551 131.875 137.459 132.173 138.532 132.173ZM163.635 134.854C161.431 134.854 159.614 134.526 158.184 133.871C156.784 133.215 155.742 132.396 155.057 131.413C154.372 130.401 154.029 129.418 154.029 128.464C154.029 127.63 154.267 126.916 154.744 126.32C155.25 125.724 155.92 125.411 156.754 125.382C157.41 125.352 157.931 125.486 158.318 125.784C158.705 126.052 158.973 126.394 159.122 126.811C159.301 127.228 159.391 127.601 159.391 127.928C159.391 128.226 159.331 128.554 159.212 128.911C159.093 129.269 158.929 129.596 158.72 129.894C159.048 130.609 159.644 131.145 160.507 131.503C161.371 131.86 162.28 132.039 163.233 132.039C165.199 132.039 166.703 131.473 167.746 130.341C168.818 129.209 169.354 127.72 169.354 125.873C169.354 124.741 169.145 123.654 168.728 122.611C168.341 121.539 167.641 120.66 166.629 119.975C165.616 119.26 164.171 118.918 162.295 118.948C162.086 118.948 161.759 118.963 161.312 118.992C160.865 119.022 160.493 119.052 160.195 119.082V116.267C160.463 116.297 160.716 116.312 160.954 116.312C161.193 116.312 161.431 116.312 161.669 116.312C163.069 116.312 164.216 116.029 165.109 115.463C166.033 114.897 166.718 114.182 167.165 113.318C167.641 112.425 167.894 111.471 167.924 110.459C167.924 109.357 167.775 108.389 167.477 107.555C167.209 106.691 166.733 106.021 166.048 105.544C165.392 105.067 164.499 104.829 163.367 104.829C162.384 104.829 161.505 105.082 160.731 105.589C159.986 106.065 159.495 106.586 159.256 107.152C159.525 107.45 159.703 107.793 159.793 108.18C159.912 108.567 159.971 108.91 159.971 109.208C159.971 109.535 159.882 109.908 159.703 110.325C159.554 110.712 159.271 111.054 158.854 111.352C158.467 111.65 157.946 111.784 157.291 111.754C156.457 111.725 155.816 111.427 155.369 110.861C154.952 110.295 154.744 109.625 154.744 108.85C154.744 107.986 155.086 107.033 155.771 105.991C156.457 104.918 157.484 104.01 158.854 103.265C160.254 102.521 161.982 102.148 164.037 102.148C165.824 102.148 167.448 102.402 168.907 102.908C170.367 103.414 171.528 104.248 172.392 105.41C173.256 106.572 173.688 108.106 173.688 110.012C173.688 110.846 173.464 111.739 173.018 112.693C172.571 113.646 171.841 114.524 170.828 115.329C169.816 116.133 168.46 116.758 166.763 117.205C169.622 117.652 171.767 118.65 173.196 120.199C174.656 121.718 175.386 123.505 175.386 125.56C175.386 127.586 174.864 129.298 173.822 130.698C172.779 132.069 171.365 133.111 169.577 133.826C167.82 134.511 165.839 134.854 163.635 134.854Z" fill="#F54BA6"/>
<defs>
<filter id="filter0_f_2036_440" x="0.496857" y="57.5603" width="298.792" height="244.805" filterUnits="userSpaceOnUse" color-interpolation-filters="sRGB">
<feFlood flood-opacity="0" result="BackgroundImageFix"/>
<feBlend mode="normal" in="SourceGraphic" in2="BackgroundImageFix" result="shape"/>
<feGaussianBlur stdDeviation="30.2516" result="effect1_foregroundBlur_2036_440"/>
</filter>
<filter id="filter1_d_2036_440" x="44.3773" y="43.5703" width="212.397" height="156.764" filterUnits="userSpaceOnUse" color-interpolation-filters="sRGB">
<feFlood flood-opacity="0" result="BackgroundImageFix"/>
<feColorMatrix in="SourceAlpha" type="matrix" values="0 0 0 0 0 0 0 0 0 0 0 0 0 0 0 0 0 0 127 0" result="hardAlpha"/>
<feOffset dy="9.30818"/>
<feGaussianBlur stdDeviation="0.465409"/>
<feComposite in2="hardAlpha" operator="out"/>
<feColorMatrix type="matrix" values="0 0 0 0 0.960784 0 0 0 0 0.294118 0 0 0 0 0.65098 0 0 0 1 0"/>
<feBlend mode="normal" in2="BackgroundImageFix" result="effect1_dropShadow_2036_440"/>
<feBlend mode="normal" in="SourceGraphic" in2="effect1_dropShadow_2036_440" result="shape"/>
</filter>
</defs>
</svg>
