<svg width="97" height="97" viewBox="0 0 97 97" fill="none" xmlns="http://www.w3.org/2000/svg">
<rect x="8.5" y="8.47705" width="80" height="80" rx="40" fill="#06402B"/>
<rect x="8.5" y="8.47705" width="80" height="80" rx="40" stroke="#F8D955" stroke-width="16.1667"/>
<g clip-path="url(#clip0_340_1157)">
<path d="M48.375 28.0864C48.2656 28.1254 47.875 28.4614 47.5078 28.8286L46.8359 29.5004L46.0312 29.2583C45.1172 28.9848 44.8984 28.9692 44.4844 29.1333C43.8984 29.3833 43.7031 29.6723 43.4531 30.6645C43.2031 31.6879 43.2578 31.6254 42.3516 31.8364C41.4922 32.0317 41.1719 32.1958 40.8984 32.5942C40.6016 33.0395 40.5938 33.4223 40.875 34.4145L41.125 35.2973L40.5 35.8833C39.7734 36.5629 39.625 36.8208 39.625 37.3754C39.625 37.9301 39.8281 38.2739 40.5312 38.9223C41.2031 39.5473 41.1797 39.4067 40.8359 40.5629C40.6484 41.2114 40.6328 41.3286 40.7188 41.6567C40.8828 42.3208 41.2344 42.6254 42.1094 42.8442C42.3672 42.9145 42.4375 42.9614 42.4062 43.0629C42.3828 43.1333 41.9922 44.5942 41.5391 46.3051C40.7812 49.1176 40.7188 49.4301 40.7969 49.6801C40.9219 50.0551 41.2109 50.2661 41.6172 50.2661C41.9375 50.2661 42.1016 50.1801 43.4688 49.3051C43.5391 49.2583 43.6172 49.2348 43.6328 49.2504C43.6562 49.2739 43.8438 49.6411 44.0625 50.0708C44.4688 50.8911 44.6875 51.1489 45.0234 51.227C45.3438 51.3051 45.7891 51.1411 45.9453 50.8833C46.0234 50.7583 46.3828 49.5473 46.7422 48.1958L47.3906 45.7348L47.8281 46.1567C48.3047 46.6333 48.5469 46.7504 49.0078 46.7504C49.4453 46.7504 49.7969 46.5864 50.25 46.1567C50.4609 45.9536 50.6406 45.8129 50.6406 45.8364C50.6406 45.9848 51.9297 50.6567 52.0156 50.8286C52.1641 51.1098 52.3984 51.227 52.8125 51.227C53.2656 51.227 53.4844 51.0083 53.9609 50.0317C54.1719 49.602 54.375 49.2504 54.4062 49.2504C54.4375 49.2504 54.8125 49.477 55.2422 49.7583C55.9062 50.1879 56.0781 50.2661 56.3672 50.2661C56.8047 50.2661 57.0938 50.0473 57.2031 49.6567C57.2734 49.3911 57.1875 49.0083 56.4219 46.1645C55.9531 44.4067 55.5938 42.9458 55.625 42.9145C55.6562 42.8911 55.8594 42.8208 56.0703 42.7739C56.8125 42.5942 57.2188 42.1723 57.3359 41.4848C57.3594 41.3129 57.2891 40.9067 57.1328 40.3364L56.8828 39.4536L57.5469 38.7895C58.2578 38.0708 58.375 37.8676 58.375 37.3364C58.375 36.8129 58.2656 36.6254 57.5391 35.8754L56.8672 35.1879L57.0938 34.4301C57.4219 33.3208 57.3672 32.7661 56.875 32.3286C56.6094 32.0864 56.4453 32.0161 55.7188 31.8286C54.6875 31.5786 54.7578 31.6411 54.5156 30.6801C54.2734 29.7192 54.0703 29.3833 53.5781 29.1645C53.1328 28.9614 52.8438 28.977 51.8906 29.2504L51.0703 29.4848L50.4453 28.8208C50.1016 28.4614 49.7188 28.1254 49.6016 28.0786C49.3281 27.9848 48.6406 27.9848 48.375 28.0864ZM49.625 29.9223C50.2344 30.5395 50.6719 30.8051 51.0703 30.8129C51.1953 30.8129 51.6797 30.7036 52.1484 30.5708C52.7734 30.3989 53.0234 30.352 53.0625 30.4223C53.0938 30.4692 53.1953 30.852 53.2891 31.2661C53.5703 32.5239 53.7422 32.7036 55.0781 33.0395C55.5391 33.1489 55.9297 33.2817 55.9609 33.3208C55.9844 33.3676 55.9062 33.727 55.7891 34.1176C55.3906 35.3833 55.5078 35.8364 56.4609 36.6958C56.7812 36.9926 57.0469 37.2739 57.0469 37.3364C57.0469 37.3911 56.7812 37.6801 56.4609 37.9692C55.8359 38.5317 55.5625 38.9692 55.5625 39.4145C55.5625 39.5708 55.6641 40.0551 55.7891 40.5083C55.9141 40.9536 55.9922 41.352 55.9531 41.3833C55.9219 41.4223 55.5078 41.5395 55.0469 41.6489C54.2656 41.8286 54.1641 41.8754 53.875 42.1723C53.5859 42.4614 53.5391 42.5786 53.3359 43.3754C53.2109 43.8754 53.0703 44.2817 53.0156 44.3051C52.9531 44.3286 52.6562 44.2661 52.3438 44.1723C50.9375 43.7348 50.7188 43.7817 49.7188 44.7504L48.9844 45.4614L48.3828 44.8208C47.4922 43.8598 47.1328 43.7661 45.7812 44.1645C45.2266 44.3286 45 44.3676 44.9531 44.2973C44.9141 44.2504 44.8203 43.9145 44.7422 43.5473C44.5859 42.8208 44.4609 42.5083 44.2031 42.2348C43.9688 41.9692 43.7422 41.8754 42.9062 41.6723C42.5 41.5708 42.125 41.4614 42.0781 41.4223C42.0078 41.3754 42.0469 41.1567 42.2109 40.6333C42.4453 39.8833 42.4922 39.3286 42.3594 38.9692C42.3125 38.852 41.9688 38.4458 41.6016 38.0629L40.9219 37.3754L41.5938 36.6879C41.9688 36.3129 42.3125 35.9067 42.3516 35.7895C42.4922 35.4301 42.4531 35.0395 42.2031 34.1723C42.0469 33.6254 42 33.3442 42.0547 33.3051C42.1016 33.2817 42.4844 33.1801 42.9062 33.0864C44.1406 32.8051 44.375 32.5629 44.6953 31.2426C44.7891 30.852 44.8984 30.4926 44.9297 30.4379C44.9688 30.3676 45.1797 30.3989 45.7656 30.5786C46.1875 30.7036 46.6797 30.8129 46.8438 30.8129C47.3281 30.8129 47.7578 30.5551 48.3281 29.9145C48.6172 29.5942 48.8984 29.3286 48.9453 29.3286C49 29.3286 49.3047 29.5942 49.625 29.9223ZM43.8672 45.1411C44.0156 45.3598 44.4531 45.6098 44.8281 45.6801C44.9609 45.7036 45.2812 45.6801 45.5312 45.6176C45.7812 45.5629 46.0078 45.5239 46.0234 45.5395C46.0625 45.5864 45.1484 49.0161 45.0938 49.0161C45.0625 49.0161 44.9453 48.8051 44.8125 48.5395C44.5156 47.9067 44.25 47.6879 43.7891 47.6879C43.5703 47.6879 43.3594 47.7426 43.2344 47.8364C43.1172 47.9145 42.875 48.0708 42.6953 48.1801L42.375 48.3833L42.6797 47.2348C42.8516 46.602 43.1016 45.6567 43.2422 45.1333L43.4922 44.1801L43.6172 44.5629C43.6875 44.7661 43.7969 45.0317 43.8672 45.1411ZM55.0547 46.2348C55.3438 47.2973 55.5938 48.227 55.6172 48.2895C55.6406 48.352 55.4141 48.2426 55.1016 48.0473C54.1562 47.4379 53.6484 47.5708 53.1875 48.5395C53.0547 48.8051 52.9375 49.0161 52.9141 49.0161C52.8828 49.0161 52.7656 48.6567 52.6562 48.2114C52.5391 47.7739 52.3203 46.9692 52.1719 46.4301L51.9141 45.4458L52.2656 45.5473C53.0391 45.7817 53.7969 45.6098 54.1484 45.1254C54.2344 45.0004 54.3516 44.7348 54.4062 44.5317C54.4609 44.3286 54.5156 44.1879 54.5234 44.227C54.5312 44.2583 54.7734 45.1645 55.0547 46.2348Z" fill="white"/>
<path d="M48.3125 32.3052C47.1328 32.4614 46.3047 32.8833 45.4062 33.7817C44.3516 34.8286 43.9219 35.8677 43.9219 37.3755C43.9219 38.2817 44.0547 38.8442 44.4844 39.7114C45.0391 40.8599 46.2031 41.8364 47.4766 42.2427C47.9219 42.3833 48.2109 42.4146 49 42.4146C49.7891 42.4146 50.0781 42.3833 50.5234 42.2427C51.7969 41.8364 52.9609 40.8599 53.5156 39.7114C53.9453 38.8442 54.0781 38.2817 54.0781 37.3755C54.0781 35.8677 53.6484 34.8286 52.5938 33.7817C52.1016 33.2817 51.7812 33.0396 51.3438 32.8208C50.3984 32.3521 49.3125 32.1646 48.3125 32.3052ZM50.0547 33.7427C50.4922 33.8677 51.2656 34.3052 51.6016 34.6255C51.9766 34.9849 52.4297 35.7271 52.5938 36.2583C53.2188 38.2817 52.0469 40.3755 49.9453 41.0005C48.4688 41.438 46.6875 40.7192 45.8047 39.3364C45.0312 38.1255 45.0625 36.5005 45.8828 35.2739C46.7969 33.8989 48.4375 33.2974 50.0547 33.7427Z" fill="white"/>
<path d="M49.9375 36.555L48.7344 37.7581L47.8203 36.8675C46.9688 36.0315 46.8828 35.969 46.6016 35.969C46.1953 35.969 45.9531 36.219 45.9531 36.6331C45.9531 36.9222 46.0234 37.0003 47.1641 38.1487C48.8047 39.805 48.5391 39.8284 50.5234 37.8362C52 36.3597 52.0469 36.305 52.0469 36.0003C52.0469 35.594 51.8047 35.344 51.4141 35.344C51.1719 35.344 51.0312 35.4612 49.9375 36.555Z" fill="white"/>
<path d="M34.7033 44.5707C34.1877 44.7739 33.7658 45.4301 33.7112 46.1176C33.6799 46.5004 33.9221 49.0395 34.5549 54.9926C34.7268 56.6567 34.8908 57.3754 35.2815 58.1411C35.7033 58.977 36.1565 59.5082 37.7033 61.0004C38.508 61.7661 39.2112 62.4926 39.2737 62.6176C39.3362 62.7348 39.3908 63.0161 39.3908 63.2348C39.3908 63.6176 39.383 63.6254 39.1565 63.6254C38.9924 63.6254 38.8283 63.7114 38.6252 63.8911L38.3362 64.1567L38.3127 65.7036C38.2893 67.3832 38.3205 67.5864 38.6877 67.8442C38.8987 67.9926 39.0471 68.0004 42.5705 68.0004C46.5862 68.0004 46.4455 68.0161 46.6955 67.5317C46.8752 67.1879 46.8674 64.3989 46.6877 64.0942C46.5237 63.8207 46.1877 63.6254 45.8908 63.6254H45.6565L45.6252 61.6098C45.594 59.7582 45.5705 59.5395 45.383 58.8442C44.9455 57.1879 44.094 55.7739 42.6018 54.227C41.4143 53.0004 39.2502 51.0942 38.7815 50.8832L38.3362 50.6723L37.6408 48.3051C37.2658 47.0004 36.8908 45.7895 36.8127 45.6098C36.633 45.1957 36.2112 44.7192 35.8987 44.5942C35.6096 44.4692 34.9846 44.4614 34.7033 44.5707ZM35.5471 46.102C35.6252 46.2661 36.008 47.4692 36.383 48.7661C37.0002 50.8832 37.0627 51.1567 36.969 51.3051C36.7112 51.7114 36.6565 51.8911 36.6565 52.2973C36.6565 52.5786 36.719 52.852 36.8362 53.0942C37.008 53.477 40.3049 57.1801 40.6877 57.4223C40.9299 57.5864 41.3752 57.5082 41.5393 57.2739C41.7502 56.977 41.6877 56.6332 41.3674 56.2661C41.2033 56.0864 40.3752 55.1645 39.5237 54.227C38.2346 52.7973 37.9768 52.477 38.0002 52.3051C38.0158 52.1957 38.0783 52.0942 38.1487 52.0786C38.3362 52.0473 41.5783 55.0239 42.3127 55.9067C43.258 57.0317 43.758 57.9692 44.1252 59.2895C44.2268 59.6567 44.2658 60.1879 44.2971 61.6957L44.3283 63.6254H42.5237H40.719V63.1176C40.719 62.7973 40.6565 62.4536 40.5471 62.1645C40.3987 61.7582 40.2268 61.5551 38.7112 60.0786C36.9143 58.3207 36.5549 57.852 36.2346 56.8911C36.0158 56.2504 35.9768 55.9301 35.3987 50.2114C35.0705 47.0161 35.008 46.1645 35.0783 46.0082C35.2033 45.727 35.383 45.7661 35.5471 46.102ZM45.4846 65.852V66.7504H42.5549H39.6252V65.852V64.9536H42.5549H45.4846V65.852Z" fill="white"/>
<path d="M44.0316 65.2819C43.6644 65.4538 43.5863 66.0241 43.8832 66.321C44.0941 66.5397 44.5707 66.5866 44.7894 66.4147C45.1488 66.1413 45.18 65.7272 44.8675 65.4147C44.6254 65.1725 44.3363 65.1257 44.0316 65.2819Z" fill="white"/>
<path d="M62.086 44.5942C61.7891 44.727 61.3594 45.2036 61.1876 45.6098C61.1094 45.7895 60.7344 47.0004 60.3594 48.3051L59.6641 50.6723L59.2188 50.8832C58.9063 51.0239 58.3594 51.4614 57.3673 52.3598C54.9063 54.5942 54.0001 55.6567 53.2501 57.1723C53.0157 57.6489 52.7344 58.3911 52.6173 58.8207C52.4298 59.5473 52.4141 59.7426 52.3751 61.6098L52.3438 63.6254H52.1094C51.8126 63.6254 51.4766 63.8207 51.3126 64.0942C51.1329 64.3989 51.1251 67.1879 51.3048 67.5317C51.5548 68.0161 51.4141 68.0004 55.4532 68.0004H59.1407L59.3751 67.7817C59.6876 67.4848 59.7188 67.2817 59.6876 65.602L59.6641 64.1801L59.4298 63.9379C59.2891 63.7895 59.0938 63.6801 58.9063 63.6567L58.6094 63.602V63.2192C58.6094 63.0082 58.6641 62.7348 58.7266 62.6176C58.7891 62.4926 59.4923 61.7661 60.2969 61.0004C61.0938 60.227 61.9063 59.3911 62.1094 59.1332C62.5469 58.5551 63.0157 57.5629 63.1798 56.8989C63.3516 56.1879 64.3282 46.6489 64.2891 46.1176C64.2266 45.4145 63.8048 44.7661 63.2735 44.5707C62.9766 44.4536 62.3751 44.4692 62.086 44.5942ZM62.9219 46.0082C62.9923 46.1645 62.9219 47.0317 62.6016 50.2504C62.0235 55.9067 61.9844 56.2504 61.7657 56.8911C61.4454 57.852 61.086 58.3207 59.2891 60.0786C57.7813 61.5551 57.6016 61.7582 57.4454 62.1645C57.3438 62.4536 57.2813 62.7973 57.2813 63.1176V63.6254H55.4298H53.586L53.6407 61.9301C53.6954 60.1332 53.7813 59.4926 54.1094 58.5551C54.6641 56.9614 55.4923 55.9145 58.0079 53.6176C58.9454 52.7661 59.7579 52.0629 59.8204 52.0629C59.9766 52.0629 60.0391 52.3442 59.9298 52.5473C59.8751 52.6489 59.1798 53.4457 58.3829 54.3286C56.2188 56.7114 56.3438 56.5629 56.3438 56.852C56.3438 56.9926 56.3985 57.1801 56.461 57.2739C56.6094 57.477 57.0469 57.5786 57.2657 57.4614C57.3594 57.4145 58.1407 56.5942 59.0157 55.6332C59.8829 54.6801 60.6798 53.8207 60.7813 53.727C60.8751 53.6254 61.0469 53.3676 61.1485 53.1411C61.4141 52.5786 61.4063 52.0629 61.1407 51.5239L60.9376 51.1176L61.6173 48.7582C61.9923 47.4614 62.3673 46.2661 62.4532 46.102C62.6173 45.7661 62.7969 45.727 62.9219 46.0082ZM58.3751 65.852V66.7504H55.4454H52.5157V65.852V64.9536H55.4454H58.3751V65.852Z" fill="white"/>
<path d="M53.1331 65.4146C52.8909 65.6567 52.8518 65.8755 53.0003 66.1489C53.1409 66.4146 53.305 66.5083 53.6331 66.5161C53.9846 66.5161 54.3128 66.2427 54.3128 65.938C54.3128 65.2583 53.6018 64.9458 53.1331 65.4146Z" fill="white"/>
</g>
<defs>
<clipPath id="clip0_340_1157">
<rect width="40" height="40" fill="white" transform="translate(29 28.0005)"/>
</clipPath>
</defs>
</svg>
