<svg width="97" height="97" viewBox="0 0 97 97" fill="none" xmlns="http://www.w3.org/2000/svg">
<rect x="8.5" y="8.36768" width="80" height="80" rx="40" fill="#06402B"/>
<rect x="8.5" y="8.36768" width="80" height="80" rx="40" stroke="#F8D955" stroke-width="16.1667"/>
<g clip-path="url(#clip0_340_1210)">
<g clip-path="url(#clip1_340_1210)">
<path d="M48.7502 28.7661C48.6798 28.8208 48.4377 29.0942 48.2111 29.3755C47.5939 30.1333 45.9298 31.813 45.133 32.4849C42.5548 34.6567 39.9689 36.0786 36.6877 37.1333C35.6095 37.4771 33.8205 37.9067 32.9923 38.0161C32.2892 38.1099 32.258 38.1802 32.3205 39.438C32.4455 42.2114 32.7189 44.1724 33.3048 46.4927C35.1095 53.7349 39.4377 60.2817 45.3908 64.7896C46.2658 65.4536 48.0548 66.6489 48.633 66.9536L49.0002 67.1489L49.3673 66.9536C49.9455 66.6489 51.6955 65.4692 52.5548 64.813C52.9845 64.4849 53.3595 64.2192 53.383 64.2192C53.4142 64.2192 53.6486 64.3364 53.9064 64.4849C54.6095 64.8833 55.3595 65.1567 56.1877 65.3286C57.172 65.5317 58.883 65.4927 59.8127 65.2427C60.6173 65.0317 61.7814 64.4692 62.4377 63.9849C66.3127 61.1099 66.797 55.6255 63.4845 52.1099L62.9767 51.5786L63.3673 50.6099C64.7423 47.1489 65.4923 43.5396 65.6877 39.4849C65.7345 38.4302 65.7267 38.3677 65.5705 38.2114C65.4767 38.1177 65.3283 38.0474 65.2345 38.0474C64.8752 38.0474 62.5705 37.4614 61.3752 37.0708C58.4767 36.1099 55.8986 34.7192 53.3752 32.7661C52.5314 32.1099 50.4298 30.1021 49.5705 29.1177C49.172 28.6724 48.9845 28.5864 48.7502 28.7661ZM51.1252 31.9536C54.9298 35.4224 58.9533 37.5317 63.883 38.6333C64.3986 38.7505 64.8361 38.8599 64.8517 38.8755C64.922 38.9458 64.6955 41.8677 64.5392 42.9302C64.3283 44.4067 63.9142 46.2974 63.5236 47.5786C63.1877 48.6958 62.4064 50.8442 62.297 50.9536C62.258 50.9927 61.9845 50.8833 61.6877 50.7114C61.3908 50.5474 60.8986 50.313 60.5861 50.188L60.0314 49.9771L60.1877 49.5786C61.1252 47.2817 61.9767 43.8364 62.1642 41.6021C62.2111 41.0864 62.1955 40.9536 62.1017 40.8755C62.0392 40.8208 61.5158 40.6333 60.9455 40.4614C57.1877 39.3286 53.5158 37.313 50.5392 34.7739C49.3752 33.7739 49.1408 33.5942 49.0314 33.5942C48.9767 33.5942 48.5314 33.9458 48.047 34.3833C44.7345 37.3286 41.3595 39.2271 37.2267 40.4771C36.508 40.688 35.8908 40.9067 35.8517 40.9614C35.6955 41.1958 36.0939 43.8286 36.5939 45.813C37.9142 51.0864 40.6798 55.8755 44.5939 59.688C46.2502 61.2974 48.5939 63.1255 49.008 63.1255C49.1408 63.1255 49.5236 62.8911 50.1252 62.4536C50.6252 62.0864 51.0548 61.7896 51.0705 61.8052C51.0861 61.8208 51.2502 62.0552 51.4455 62.3208C51.6408 62.5864 52.0002 62.9927 52.2423 63.2271L52.6798 63.6567L51.7892 64.3286C50.922 64.9771 49.1173 66.1724 49.0002 66.1724C48.9689 66.1724 48.508 65.8911 47.9767 65.5552C39.2345 59.9614 33.6955 50.3833 33.172 39.9536L33.1173 38.8442L33.6955 38.7505C34.5861 38.6021 36.5158 38.0942 37.5548 37.7349C41.672 36.3052 45.2658 33.938 48.1486 30.7349L49.008 29.7739L49.7033 30.5317C50.0861 30.9536 50.7189 31.5942 51.1252 31.9536ZM50.5783 35.9146C53.3517 38.1724 56.5627 39.9146 60.1486 41.0864C60.758 41.2896 61.2814 41.4692 61.3048 41.4927C61.3752 41.5708 61.1173 43.2271 60.8361 44.5708C60.5236 46.0161 60.0939 47.4458 59.5783 48.7896L59.2111 49.7271H57.9142C56.3361 49.7271 55.633 49.8677 54.4064 50.4458C54.0861 50.5942 53.8283 50.7036 53.8205 50.688C53.8127 50.6802 53.633 50.4146 53.4298 50.1099C52.758 49.1021 51.797 48.3599 50.6877 47.9927C50.1252 47.8052 49.9377 47.7817 49.0002 47.7817C48.0627 47.7817 47.8752 47.8052 47.3127 47.9927C45.1486 48.7114 43.6095 50.8521 43.7033 53.0161C43.7345 53.7896 43.8986 54.0786 44.5705 54.5317C45.4767 55.1411 47.047 55.4849 48.9689 55.4849H50.1408L50.0314 55.9692C49.9611 56.2661 49.922 56.8911 49.9142 57.6177C49.9142 58.8521 50.047 59.5786 50.4689 60.6021L50.633 61.0083L49.8517 61.6021C49.422 61.9224 49.0392 62.188 49.008 62.188C48.9689 62.188 48.5236 61.8755 48.0158 61.4927C41.7345 56.7974 37.6955 49.813 36.6955 41.9146L36.6486 41.5239L37.5236 41.2661C40.2345 40.4771 43.1798 39.0708 45.5627 37.438C46.4142 36.8521 47.883 35.688 48.5705 35.063L49.0392 34.6255L49.4142 34.9536C49.6173 35.1255 50.1408 35.563 50.5783 35.9146ZM50.172 48.7271C51.2345 49.0161 52.3752 49.8833 52.8517 50.7661L53.0705 51.1646L52.297 51.9302C51.508 52.7114 51.0314 53.3677 50.6642 54.1567L50.4611 54.5942L49.7892 54.6567C48.2892 54.7817 46.4064 54.5083 45.4298 54.0239C44.5158 53.5708 44.383 53.2974 44.5705 52.313C45.0939 49.6567 47.6408 48.0239 50.172 48.7271ZM59.3673 50.7114C61.0548 51.0786 62.6642 52.1958 63.6564 53.6802C65.0627 55.7817 65.2345 58.4067 64.1173 60.6802C63.172 62.5942 61.4845 63.9614 59.4142 64.4692C58.4377 64.7114 57.0236 64.7114 56.1095 64.4614C55.3595 64.2661 54.3517 63.813 53.8048 63.438C52.8127 62.7505 51.7892 61.5239 51.3048 60.4302C50.6252 58.8833 50.5314 56.9692 51.0627 55.4067C52.1173 52.3208 54.9611 50.3677 58.1798 50.5317C58.4377 50.5396 58.9689 50.6255 59.3673 50.7114Z" fill="white"/>
<path d="M48.3283 41.3209C46.9845 41.6646 46.0627 43.0006 46.2189 44.3678C46.3986 45.9537 47.9767 47.1099 49.5314 46.7974C52.172 46.2584 52.6173 42.6646 50.1877 41.5162C49.7189 41.2974 48.797 41.1959 48.3283 41.3209ZM49.7814 42.274C50.8127 42.7349 51.2423 43.9146 50.7502 44.9068C49.8673 46.6803 47.2502 46.1881 47.0705 44.2193C46.9377 42.7584 48.4455 41.6724 49.7814 42.274Z" fill="white"/>
<path d="M59.8751 54.4302C59.7345 54.5083 58.922 55.2505 58.0626 56.0786L56.5001 57.5864L56.1017 57.2505C55.7345 56.9458 55.6642 56.9146 55.1876 56.8911C54.7423 56.8677 54.6251 56.8911 54.3908 57.0474C53.8283 57.4302 53.6095 58.1021 53.8439 58.7192C53.9533 58.9927 55.2579 60.3286 55.7111 60.6333C56.1251 60.9067 56.7033 60.9458 57.1017 60.7192C57.4923 60.5083 61.5861 56.4849 61.7111 56.1958C61.8595 55.8208 61.8361 55.3833 61.6329 55.0005C61.3126 54.3833 60.4689 54.1177 59.8751 54.4302ZM60.8126 55.2896C60.8908 55.3599 60.9533 55.5161 60.9533 55.6489C60.9533 55.8442 60.6876 56.1411 59.0392 57.7505C56.8283 59.9224 56.6173 60.1021 56.3908 60.0317C56.297 60.0083 55.8439 59.6099 55.3829 59.1411C54.6564 58.4146 54.5392 58.2661 54.5861 58.1099C54.6564 57.8833 54.9064 57.6567 55.1017 57.6567C55.1876 57.6567 55.4845 57.8677 55.7658 58.1333C56.1798 58.5161 56.3126 58.6021 56.5001 58.5786C56.672 58.563 57.1329 58.1567 58.4845 56.8521C60.3361 55.063 60.4689 54.9771 60.8126 55.2896Z" fill="white"/>
</g>
</g>
<defs>
<clipPath id="clip0_340_1210">
<rect width="40" height="40" fill="white" transform="translate(29 27.8911)"/>
</clipPath>
<clipPath id="clip1_340_1210">
<rect width="40" height="40" fill="white" transform="translate(29 27.8911)"/>
</clipPath>
</defs>
</svg>
